<?xml version="1.0" encoding="UTF-8" standalone="no"?>
<!DOCTYPE svg PUBLIC "-//W3C//DTD SVG 1.1//EN" "http://www.w3.org/Graphics/SVG/1.1/DTD/svg11.dtd">
<svg
	width="100%"
	height="100%"
	viewBox="0 0 500 125"
	version="1.1"
	xmlns="http://www.w3.org/2000/svg"
	fill="currentColor"
>
	<g>
		<path
			d="M388.138,37.656l-73.496,-0.013c-0.524,0.001 -1.071,0.412 -1.216,0.915l-13.126,48.768c-0.146,0.502 0.163,0.912 0.687,0.912l74.939,0.042c13.686,0.065 15.686,-7.155 17.542,-14.086l1.785,-6.491c1.172,-3.918 -0.777,-5.759 -2.392,-6.891c-0.703,-0.451 -0.818,-1.226 0.031,-1.531c1.786,-0.832 2.775,-1.428 3.559,-4.453l2.395,-8.843c1.325,-4.856 -4.02,-8.329 -10.708,-8.329Zm-14.787,31.218l-1.676,6.093c-0.871,3.17 -3.626,4.655 -6.477,4.655l-40.819,0.089l3.653,-13.634l42.71,-0c1.368,-0 2.966,1.208 2.609,2.797Zm2.617,-20.073l-1.558,5.541c-0.801,2.796 -3.302,3.261 -5.644,3.261l-38.465,-0l3.357,-12.329l39.591,-0c2.957,0.071 3.415,0.799 2.719,3.527Z"
		/>
		<path
			d="M90.556,45.085c4.186,0 8.556,-3.291 9.711,-7.313l8.263,-28.751c1.157,-4.022 -1.322,-7.313 -5.507,-7.313l-30.891,0c-4.185,0 -8.555,3.292 -9.71,7.314l-7.014,24.419c-1.155,4.022 -5.525,7.314 -9.71,7.314l-25.602,-0c-4.186,-0 -8.555,3.291 -9.71,7.314l-8.26,28.752c-1.155,4.022 1.324,7.314 5.508,7.314l24.79,-0c4.184,-0 6.663,3.291 5.507,7.312l-7.049,24.531c-1.156,4.022 1.323,7.314 5.507,7.314l30.891,-0c4.185,-0 8.555,-3.292 9.711,-7.314l8.26,-28.754c1.157,-4.023 -1.323,-7.314 -5.508,-7.314l-24.787,-0c-4.185,-0 -6.664,-3.292 -5.508,-7.314l5.801,-20.198c1.155,-4.023 5.526,-7.314 9.71,-7.314l25.597,-0l0,0.001Z"
		/>
		<path
			d="M206.24,37.643l-72.628,-0.004c-4.025,-0 -8.169,3.181 -9.21,7.068l-8.069,30.209c-1.97,7.411 3.002,13.472 11.05,13.472l67.334,-0.023c0.522,-0.004 1.061,-0.42 1.196,-0.924l1.801,-6.72c0.135,-0.506 -0.183,-0.92 -0.705,-0.92l-47.933,0c-5.761,-0.118 -8.771,-4.392 -6.931,-9.757l5.686,-19.491c1.4,-4.645 3.277,-5.386 7.919,-5.386l48.474,-0c0.522,-0 1.062,-0.412 1.198,-0.919l1.523,-5.686c0.136,-0.505 -0.182,-0.919 -0.705,-0.919Z"
		/>
		<path
			d="M305.587,37.643l-22.727,0c-0.524,0 -1.076,0.41 -1.228,0.91l-8.197,30.866c-2.207,8.405 -5.91,10.293 -12.338,10.293l-24.641,-0c-7.847,-0 -8.347,-4.47 -6.884,-10.293l8.231,-30.867c0.149,-0.502 -0.159,-0.913 -0.682,-0.913l-22.57,-0c-0.522,-0 -1.072,0.41 -1.22,0.913l-9.558,35.61c-2.083,7.775 2.797,14.128 10.846,14.118l63.785,-0.042c8.049,-0 16.339,-6.36 18.426,-14.133l9.438,-35.55c0.145,-0.502 -0.158,-0.912 -0.681,-0.912Z"
		/>
		<path
			d="M492.784,37.644l-77.429,-0.001c-4.023,0 -8.167,3.138 -9.206,7.026l-8.65,32.963c-1.166,5.16 4.306,10.693 11.572,10.712l70.129,-0c0.524,-0 1.063,-0.415 1.198,-0.92l1.794,-6.696c0.136,-0.506 -0.182,-0.918 -0.706,-0.918l-52.91,0.028c-7.661,-0 -6.488,-4.532 -5.045,-9.758l1.081,-4.039c0.104,-0.339 0.304,-0.402 0.574,-0.396l59.424,0c0.524,0 1.062,-0.413 1.197,-0.917l1.64,-6.117c0.135,-0.505 -0.182,-0.919 -0.706,-0.919l-59.176,0c-0.442,0 -0.638,-0.28 -0.534,-0.634c0.104,-0.353 1.671,-6.405 1.671,-6.405c1.27,-4.714 3.194,-5.385 9.349,-5.385l52.663,-0c0.524,-0 1.062,-0.413 1.197,-0.92l1.577,-5.786c0.139,-0.504 -0.18,-0.918 -0.704,-0.918Z"
		/>
	</g>
</svg>
