<?xml version="1.0" encoding="UTF-8" standalone="no"?><!DOCTYPE svg PUBLIC "-//W3C//DTD SVG 1.1//EN" "http://www.w3.org/Graphics/SVG/1.1/DTD/svg11.dtd">
<svg
	width="100%"
	height="100%"
	viewBox="0 0 430 98"
	version="1.1"
	xmlns="http://www.w3.org/2000/svg"
	xmlns:xlink="http://www.w3.org/1999/xlink"
	xml:space="preserve"
	xmlns:serif="http://www.serif.com/"
	style="fill-rule: evenodd; clip-rule: evenodd; stroke-linejoin: round; stroke-miterlimit: 2"
	role="img"
	fill="currentColor"
>
	<path
		d="M52.207,89.698c-0,0 -52.278,-11.198 -50.119,-42.63c1.927,-28.062 49.558,-42.522 81.364,-41.267c18.668,0.737 28.224,2.836 32.172,4.181c7.203,2.453 18.161,14.707 18.566,25.542c0.307,8.192 -4.339,25.064 -17.983,23.998c-7.934,-0.62 -9.031,-11.97 -7.97,-18.853c1.06,-6.883 2.466,-9.483 1.119,-11.979c-2.757,-5.109 -10.923,-4.055 -11.078,-3.093c-0.253,1.571 2.608,1.3 1.637,3.293c-0.809,1.661 -5.77,17.386 2.852,28.419c5.015,6.418 11.932,9.75 20.68,8.57c8.835,-1.192 17.053,-9.698 20.933,-19.6c6.731,-17.177 -11.403,-30.222 -11.403,-30.222c-0,0 35.016,13.838 27.692,40.414c-5.73,20.789 -34.043,29.937 -45.103,32.331c-11.06,2.393 -24.519,4.385 -36.603,4.151c-12.261,-0.238 -22.662,-2.301 -22.662,-2.301c-0,0 7.096,-3.018 10.867,-7.762c4.917,-6.184 4.899,-23.026 4.899,-23.026c-0,-0 7.822,11.616 25.149,15.933c15.618,3.89 29.566,-2.683 28.518,-3.634c-0.094,-2.291 -15.03,2.756 -27.434,-2.983c-16.323,-7.552 -18.181,-17.039 -21.129,-20.454c2.899,-6.577 9.278,-10.624 9.732,-18.431c0.335,-5.749 -4.899,-5.463 -7.279,-5.404c-2.35,0.057 -5.328,-0.344 -6.252,1.232c-1.082,1.845 2.648,0.638 2.516,2.679c-0.27,4.196 -3.707,7.429 -6.3,11.297c-2.05,-6.67 -5.934,-14.913 -11.264,-18.6c-5.316,-3.678 -10.269,-2.911 -11.176,-0.636c-0.718,1.799 3.465,1.157 5.517,3.134c2.318,2.234 7.112,7.926 8.628,18.149c1.208,8.145 3.209,25.1 -0.957,35.376c-2.824,6.965 -8.129,12.176 -8.129,12.176Z"
	/>
	<g>
		<path
			d="M212.366,69.003c-2.827,-0 -5.098,-0.399 -6.815,-1.196c-1.026,-0.472 -2.135,-1.299 -3.329,-2.48l0,3.034l-8.761,-0l-0,-32.594l8.918,0l0,11.603c1.131,-1.122 2.376,-1.978 3.737,-2.569c1.612,-0.738 3.664,-1.107 6.155,-1.107c4.502,0 8.024,1.144 10.568,3.432c2.543,2.288 3.815,5.24 3.815,8.857c0,3.749 -1.256,6.857 -3.768,9.322c-2.512,2.465 -6.019,3.698 -10.52,3.698Zm4.899,-12.356c-0,-1.712 -0.314,-3.129 -0.943,-4.251c-1.193,-2.126 -3.391,-3.188 -6.594,-3.188c-3.245,-0 -5.475,1.04 -6.689,3.122c-0.628,1.107 -0.942,2.539 -0.942,4.295c-0,2.067 0.649,3.779 1.947,5.137c1.298,1.358 3.276,2.037 5.935,2.037c2.303,0 4.093,-0.657 5.37,-1.97c1.277,-1.314 1.916,-3.041 1.916,-5.182Z"
			style="fill-rule: nonzero"
		/>
		<path
			d="M260.13,44.226l0,24.135l-9.075,-0l-0,-24.135l9.075,-0Zm0,-8.702l0,5.823l-9.075,0l-0,-5.823l9.075,-0Z"
			style="fill-rule: nonzero"
		/>
		<path
			d="M318.07,68.361l-10.803,-0l-8.196,-10.319l-3.706,2.724l0,7.595l-8.793,-0l0,-32.527l8.793,-0l0,17.581l11.148,-9.079l11.086,0l-11.965,9.234l12.436,14.791Z"
			style="fill-rule: nonzero"
		/>
		<path
			d="M369.603,61.275c-0.23,1.432 -1.287,2.886 -3.172,4.362c-2.931,2.347 -7.034,3.521 -12.31,3.521c-4.354,-0 -8.196,-0.989 -11.525,-2.967c-3.329,-1.978 -4.993,-5.196 -4.993,-9.654c-0,-4.178 1.502,-7.381 4.506,-9.61c3.005,-2.229 6.904,-3.344 11.698,-3.344c2.847,0 5.412,0.377 7.694,1.13c2.282,0.752 4.166,1.941 5.653,3.565c1.34,1.431 2.208,3.092 2.606,4.982c0.23,1.107 0.325,2.701 0.283,4.782l-23.427,0c0.125,2.421 1.204,4.119 3.234,5.093c1.235,0.605 2.722,0.908 4.46,0.908c1.842,-0 3.339,-0.369 4.49,-1.107c0.628,-0.399 1.183,-0.952 1.665,-1.661l9.138,0Zm-8.856,-7.395c-0.146,-1.669 -0.863,-2.934 -2.151,-3.798c-1.287,-0.863 -2.884,-1.295 -4.789,-1.295c-2.073,-0 -3.679,0.457 -4.82,1.373c-1.141,0.915 -1.858,2.155 -2.151,3.72l13.911,-0Z"
			style="fill-rule: nonzero"
		/>
		<path
			d="M417.525,45.333c2.68,1.21 4.218,3.291 4.616,6.244l-8.95,-0c-0.125,-0.812 -0.45,-1.454 -0.973,-1.927c-0.984,-0.856 -2.659,-1.284 -5.025,-1.284c-1.947,0 -3.334,0.214 -4.161,0.642c-0.827,0.428 -1.24,0.93 -1.24,1.506c-0,0.723 0.439,1.247 1.319,1.572c0.879,0.34 3.988,0.923 9.327,1.749c3.559,0.591 6.228,1.484 8.007,2.679c1.759,1.211 2.638,2.724 2.638,4.54c0,2.391 -1.261,4.343 -3.784,5.856c-2.523,1.513 -6.422,2.27 -11.698,2.27c-5.38,-0 -9.353,-0.801 -11.917,-2.403c-2.565,-1.601 -3.847,-3.642 -3.847,-6.122l9.075,0c0.189,1.122 0.597,1.919 1.225,2.391c1.11,0.842 3.161,1.263 6.155,1.263c1.759,-0 3.156,-0.185 4.193,-0.554c1.036,-0.369 1.554,-0.923 1.554,-1.661c0,-0.708 -0.419,-1.247 -1.256,-1.616c-0.837,-0.369 -3.946,-1.004 -9.327,-1.904c-3.873,-0.679 -6.605,-1.528 -8.196,-2.547c-1.591,-1.003 -2.387,-2.45 -2.387,-4.34c0,-2.229 1.241,-4.144 3.721,-5.745c2.481,-1.602 5.972,-2.403 10.474,-2.403c4.27,0 7.756,0.598 10.457,1.794Z"
			style="fill-rule: nonzero"
		/>
	</g>
</svg>
