<svg
	width="100%"
	height="100%"
	viewBox="0 0 465 208"
	xmlns="http://www.w3.org/2000/svg"
	role="img"
	fill="currentColor"
>
	<path
		d="M454.182022 116.9c5.314607 0 10.097753 4.133333 10.097753 9.816667 0 5.683333-4.783146 9.816666-10.097753 9.816666-5.846067 0-10.629213-4.133333-10.629213-9.816666 0-5.683334 4.783146-9.816667 10.629213-9.816667zm-26.041573 3.616667c2.125843 2.066666 1.594382 7.233333-3.188764 10.85-17.006741 14.983333-34.544943 4.133333-28.167415-13.95C390.406742 123.1 385.092135 129.3 373.4 134.466667c-13.286517 6.2-27.104494 2.583333-27.635955-11.366667-2.125843 2.066667-5.314607 4.65-9.034832 7.75-13.817977 10.85-24.447191 9.816667-30.824719 4.65-4.783146-4.65-5.314606-14.466667 4.783146-26.866667C319.722472 97.266667 326.1 90.55 321.848315 87.45c-2.657304-1.55-13.817978 1.0333333-25.510113 13.95-9.566292 9.816667-18.601123 24.283333-22.321348 32.55-2.657303 5.683333-7.44045 6.716667-11.692135 5.166667-5.314607-2.066667-3.720225-8.266667.531461-16.533334-2.657304 2.066667-5.314607 5.166667-9.566292 8.266667-13.817978 10.85-24.978652 9.816667-30.824719 4.65-4.783147-4.65-5.314607-14.466667 4.783146-26.866667C236.283146 97.266667 242.129213 90.55 237.877528 87.45c-3.720225-2.5833333-24.447191 5.1666667-40.391011 35.65-17.006742 31.516667-27.635955 59.416667-33.482023 72.333333-3.720224 9.3-7.97191 12.916667-14.349438 12.4-6.908989-.516666-9.566292-5.683333-4.251685-17.05 7.97191-16.533333 21.258427-40.3 31.88764-62-1.062921.516667-2.125842 1.55-2.657303 2.066667-21.258427 16.533333-35.076405 3.616667-28.167416-13.433333-5.846067 5.683333-11.160674 11.883333-22.852809 17.05-11.692135 5.683333-23.38427 3.1-27.104494-6.2C91.7258427 132.4 85.8797753 137.05 76.8449438 138.6c-23.9157303 3.616667-32.9505618-19.633333-33.4820225-36.683333H39.111236c-4.7831461 8.783333-10.6292135 18.6-17.0067416 28.933333-5.3146068 8.266667-11.1606742 10.85-17.53820227 8.783333-5.84606741-1.55-5.84606741-9.816666.53146067-17.566666 13.2865169-17.05 19.664045-26.3500003 33.4820225-46.5000003 3.7202247-5.6833334 7.9719101-5.6833334 11.6921348-4.65 1.594382 1.0333333 2.6573034 2.5833333 2.6573034 4.65 4.2516854 1.55 4.7831461 5.1666666 4.7831461 11.3666666v1.0333334C77.3764045 82.8 95.977528 72.4666667 98.103371 53.35c2.125842-15.5-9.0348317-27.3833333-28.1674159-25.8333333-25.5101124 2.0666666-40.3910113 17.05-44.6426967 29.9666666-2.1258427 7.75-10.0977528 10.85-13.8179775 10.85-5.8460674 0-10.09775281-6.2-5.3146067-14.4666666C12.5382022 41.9833333 39.111236 14.0833333 78.9707865 13.05c28.6988765-.5166667 44.6426965 19.1166667 39.8595505 41.85-5.314607 24.2833333-31.3561797 39.2666667-59.5235954 44.95 2.6573033 12.4 9.5662921 23.25 22.3213483 22.733333 6.9089888 0 12.2235955-4.65 14.8808991-8.266666 6.377528-23.766667 30.824719-39.7833337 47.3-39.7833337 7.440449 0 12.223595 3.1 15.412359 6.7166667 3.188764-2.0666667 5.846068-3.1 9.034832-2.5833333 6.377528.5166666 8.503371 5.1666666 6.908989 8.7833333-1.062922 2.5833333-9.034832 17.05-11.160675 26.35-2.125842 9.3 2.657304 8.783333 5.314607 7.233333 12.223596-5.166666 20.726966-20.666666 23.91573-28.933333 6.377529-17.05 9.566293-19.6333333 15.943821-17.5666667 4.783146 1.55 5.314606 8.2666667.53146 16.0166667 5.846068-6.2 11.160675-11.8833333 22.852809-17.5666667 9.034832-3.6166666 18.069663-3.6166666 23.38427 1.0333334 7.97191 6.7166666 3.720225 18.0833333-9.566292 33.0666663-8.503371 9.3-9.566292 14.983334-5.846068 16.016667 2.125843 1.033333 5.314607 0 7.971911-1.55 17.006741-10.85 29.761797-29.9666667 36.670786-43.9166667C295.806742 55.4166667 304.841573 35.2666667 316.002247 13.05c4.783146-9.81666667 10.629214-12.91666667 17.006742-11.88333333 6.377528 1.55 6.377528 7.75000003 1.594382 15.50000003C324.505618 33.2 309.093258 62.1333333 296.338202 86.9333333c5.314607-4.65 10.629214-9.3 20.195506-13.95 8.503371-3.6166666 17.538202-3.6166666 22.852809 1.0333334 7.97191 6.7166666 4.251685 18.0833333-9.566292 33.0666663-8.503371 9.3-9.566292 14.983334-5.314607 16.016667 1.594382 1.033333 4.783146 0 7.440449-1.55 8.503371-5.683333 15.943821-14.466667 21.789888-22.733333 10.097753-14.9833337 27.635955-24.2833337 39.859551-24.2833337 7.97191 0 12.755056 3.1 15.94382 6.7166667 2.657303-2.0666667 5.314607-3.1 8.503371-2.5833333 6.908988.5166666 9.034831 5.1666666 7.440449 8.7833333-1.062921 2.5833333-9.566292 17.05-11.692135 26.35-2.125842 9.3 2.125843 9.3 4.783146 7.233333 3.188764-2.066666 6.908989-3.1 9.566292-.516666zM127.333708 118.45c10.097753-5.683333 16.475281-13.433333 20.726966-20.15-2.125843-3.6166667-5.314607-7.75-12.223595-7.75-5.846068 0-16.475281 6.716667-20.195506 18.6-4.251685 11.883333 4.783146 13.95 11.692135 9.3zm250.317977 0c9.566293-5.683333 15.943821-13.433333 20.195506-20.15-1.594382-3.6166667-5.314607-7.75-12.223595-7.75-6.377529 0-15.943821 6.716667-20.195506 18.6-4.251686 11.883333 5.314607 13.95 12.223595 9.3z"
		fill-rule="nonzero"
	></path>
</svg>
