<?xml version="1.0" encoding="UTF-8" standalone="no"?><!DOCTYPE svg PUBLIC "-//W3C//DTD SVG 1.1//EN" "http://www.w3.org/Graphics/SVG/1.1/DTD/svg11.dtd">
<svg
	width="100%"
	height="100%"
	viewBox="0 0 430 98"
	version="1.1"
	xmlns="http://www.w3.org/2000/svg"
	xmlns:xlink="http://www.w3.org/1999/xlink"
	xml:space="preserve"
	xmlns:serif="http://www.serif.com/"
	style="fill-rule: evenodd; clip-rule: evenodd; stroke-linejoin: round; stroke-miterlimit: 2"
	fill="currentColor"
>
	<path
		d="M200.972,49.726c20.845,-35.277 59.857,-33.797 46.37,-6.724c-4.522,9.084 -21.754,21.913 -35.232,23.937c-0.074,-0.781 -0.07,-1.604 0.008,-2.465c18.425,-4.044 41.158,-29.391 28.318,-32.92c-15.484,-4.261 -55.314,56.541 -6.698,40.318l-1.538,3.234c-23.722,12.645 -50.881,7.879 -31.228,-25.38m210.579,15.821c0,-2.103 -1.629,-3.678 -3.649,-3.678c-2.044,0 -3.65,1.575 -3.65,3.678c0,2.108 1.606,3.678 3.65,3.678c2.02,0 3.649,-1.57 3.649,-3.678m-8.011,0.001c-0,-2.573 2.061,-4.307 4.365,-4.307c2.303,-0 4.362,1.734 4.362,4.307c0,2.572 -2.059,4.307 -4.362,4.307c-2.304,0 -4.365,-1.735 -4.365,-4.307m5.516,2.41l-1.277,-2.084l-0.766,0l-0,2.084l-0.82,0l-0,-4.82l1.905,-0c1.208,-0 1.834,0.406 1.834,1.385c0,0.877 -0.569,1.239 -1.322,1.317l1.404,2.118l-0.958,0Zm-2.043,-2.759l0.878,0c0.616,0 1.153,-0.057 1.153,-0.733c0,-0.562 -0.592,-0.652 -1.085,-0.652l-0.946,-0l-0,1.385Zm-114.048,-40.251l-4.593,0l1.45,-2.707l15.598,0l-1.45,2.707l-4.594,0l-4.946,9.219l-6.414,-0l4.949,-9.219Zm19.034,-0.201l-1.347,2.505l1.226,0c1.664,0 2.494,-0.734 2.782,-1.269c0.465,-0.868 0.027,-1.236 -1.873,-1.236l-0.788,0Zm-1.415,9.42l-0.874,-5.009l-2.768,5.009l-6.177,-0l6.4,-11.926l8.909,0c4.669,0 6.442,1.052 5.205,3.358c-0.753,1.403 -2.183,2.888 -5.795,3.273l1.632,5.295l-6.532,-0Zm15.031,-11.926l6.415,0l-6.4,11.926l-6.417,-0l6.402,-11.926Zm10.174,0l13.738,0l-1.395,2.607l-7.326,0l-1.109,2.069l7.323,-0l-1.399,2.608l-7.323,-0l-1.095,2.036l7.324,-0l-1.398,2.606l-13.738,-0l6.398,-11.926Zm11.965,8.252c0.685,0.784 2.471,1.301 4.488,1.301c2.414,0 3.182,-0.466 3.454,-0.983c0.944,-1.755 -7.976,-1.437 -5.941,-5.229c1.211,-2.253 4.65,-3.574 9.716,-3.574c2.973,0 4.415,0.334 5.626,1.103l-1.532,2.856c-0.539,-0.769 -2.178,-1.254 -4.159,-1.254c-1.584,-0 -3.125,0.216 -3.52,0.953c-0.745,1.387 7.824,1.285 5.86,4.943c-1.337,2.488 -4.925,3.79 -10.468,3.79c-2.018,-0 -3.958,-0.366 -5.094,-0.984l1.57,-2.922Zm22.254,-5.545l-4.591,0l1.453,-2.707l15.598,0l-1.45,2.707l-4.594,0l-4.947,9.219l-6.413,-0l4.944,-9.219Zm14.323,-2.707l6.414,0l-6.4,11.926l-6.413,-0l6.399,-11.926Zm10.173,0l7.721,0l-0.236,8.117l4.431,-8.117l5.705,0l-6.399,11.926l-7.246,-0l-0.022,-8.518l-4.649,8.518l-5.705,-0l6.4,-11.926Zm23.326,6.783l3.207,-0l1.206,-4.977l-4.413,4.977Zm1.871,5.143l0.629,-2.638l-4.201,-0l-2.407,2.638l-6.494,-0l11.151,-11.926l9.621,0l-1.806,11.926l-6.493,-0Zm-276.964,1.428c21.556,-21.809 59.131,-20.203 77.147,-12.335c-3.588,1.693 -11.946,6.197 -16.16,10.726c-2.086,-16.142 -33.135,-21.771 -49.528,10.916c-12.889,25.697 -27.429,33.897 -46.192,36.663c-5.427,-3.161 -8.194,-9.792 -8.791,-13.939c-7.849,6.785 -23.018,13.77 -41.819,13.89c-15.332,-23.361 -8.507,-44.532 31.587,-56.208c-11.889,2.313 -14.306,1.848 -30.651,0.394c-31.488,-2.799 -53.396,15.179 -27.817,35.523c-42.108,-2.065 -35.992,-45.659 8.139,-42.944c28.977,1.781 40.037,7.67 64.053,2.512c-18.417,14.179 -36.985,29.31 -42.457,57.77c13.152,-1.99 24.837,-12.454 31.312,-21.53c8.119,-11.384 19.463,-24.484 36.447,-31.389c-17.936,18.746 -20.877,35.522 -18.212,52.71c12.187,-4.971 20.609,-30.781 32.942,-42.759m31.012,12.544c3.711,-1.179 15.793,0 15.793,0c-6.255,6.777 -10.682,13.929 -12.907,18.819c-4.001,8.8 0.751,9.176 11.962,5.8l-1.522,3.19c-7.125,5.125 -23.973,8.555 -26.914,1.664c-4.63,-10.858 8.248,-27.836 13.588,-29.473m10.663,-15.214c3.651,-3.219 9.339,-3.94 12.654,-1.643c3.395,2.299 3.224,6.762 -0.427,9.915c-3.651,3.216 -9.34,3.938 -12.652,1.642c-3.397,-2.3 -3.226,-6.763 0.425,-9.914m71.36,15.214c3.709,-1.179 15.794,0 15.794,0c-6.257,6.777 -10.684,13.929 -12.909,18.819c-4,8.8 0.751,9.176 11.961,5.8l-1.519,3.19c-7.127,5.125 -23.975,8.555 -26.913,1.664c-4.632,-10.858 8.245,-27.836 13.586,-29.473m10.662,-15.214c3.65,-3.219 9.34,-3.94 12.651,-1.643c3.397,2.299 3.225,6.762 -0.424,9.915c-3.651,3.216 -9.342,3.938 -12.654,1.642c-3.396,-2.3 -3.226,-6.763 0.427,-9.914m91.07,38.382c20.27,-14.666 45.983,-33.938 70.391,-26.986c-3.419,4.57 -5.216,7.258 -7.865,12.069c-32.127,-5.591 -53.959,13.627 -63.568,19.219c-11.166,6.5 -24.799,8.618 -27.74,1.725c-3.079,-7.219 1.584,-17.14 6.622,-23.463c-2.451,0.417 -4.901,0.058 -6.67,-1.171c-3.396,-2.298 -3.227,-6.762 0.426,-9.912c3.651,-3.218 9.341,-3.938 12.652,-1.64c2.249,1.521 2.925,3.993 2.069,6.405c4.724,-0.624 14.281,0.308 14.281,0.308c-6.256,6.776 -10.681,13.929 -12.907,18.82c-3.999,8.802 2.426,11.777 12.309,4.626m-39.681,-17.18c-3.236,6.708 -12.169,14.219 -23.587,16.401c-0.132,-0.533 -0.204,-1.41 -0.176,-1.999c15.955,-5.365 24.183,-17.981 17.982,-20.277c-8.063,-2.984 -19.174,10.261 -19.682,21.033c-0.171,11.365 21.125,2.309 23.844,1.127l-1.422,3.06c-18.809,12.5 -48.4,12.337 -34.438,-13.983c12.572,-23.692 47.699,-26.556 37.479,-5.362"
		style="fill-rule: nonzero"
	/>
</svg>
