<?xml version="1.0" encoding="UTF-8" standalone="no"?><!DOCTYPE svg PUBLIC "-//W3C//DTD SVG 1.1//EN" "http://www.w3.org/Graphics/SVG/1.1/DTD/svg11.dtd"><svg width="100%" height="100%" viewBox="0 0 804 804" version="1.1" xmlns="http://www.w3.org/2000/svg" xmlns:xlink="http://www.w3.org/1999/xlink" xml:space="preserve" xmlns:serif="http://www.serif.com/" style="fill-rule:evenodd;clip-rule:evenodd;stroke-linejoin:round;stroke-miterlimit:2;"><rect id="colored.reduced" x="0" y="0.146" width="803.157" height="803.157" style="fill:none;"/><g id="shined"><path d="M328.949,592.531c-0.029,-0.009 -0.043,-0.012 -0.071,-0.021c-0.767,1.232 -1.661,2.724 -2.49,3.972c-1.468,2.044 -2.213,3.062 -3.721,5.085c2.602,0.832 3.908,1.227 6.527,1.977c-0.146,-2.525 -0.207,-3.786 -0.309,-6.305c-0.059,-1.555 0.017,-3.258 0.064,-4.708" style="fill-rule:nonzero;"/><path d="M408.551,600.946c-0.03,0.003 -0.046,0.003 -0.075,0.005c-0.255,1.428 -0.53,3.146 -0.835,4.611c-0.603,2.441 -0.916,3.66 -1.562,6.097c2.694,-0.186 4.039,-0.298 6.728,-0.565c-1.058,-2.292 -1.575,-3.442 -2.591,-5.748c-0.623,-1.423 -1.178,-3.034 -1.665,-4.4" style="fill-rule:nonzero;"/><path d="M224.225,250.963c-1.262,1.362 -1.981,2.325 -2.284,2.823c2.276,2.048 3.414,3.073 5.691,5.12c0.901,-1.002 1.354,-1.499 2.266,-2.484c2.593,-2.8 3.105,-5.557 1.386,-7.243c-1.872,-1.838 -4.469,-1.01 -7.059,1.784" style="fill-rule:nonzero;"/><path d="M245.437,231.288c0.543,1.374 1.243,2.993 1.79,4.415c0.819,2.434 1.239,3.646 2.103,6.056c2.315,-2.006 3.487,-2.985 5.857,-4.896c-2.221,-1.276 -3.34,-1.904 -5.596,-3.138c-1.389,-0.765 -2.832,-1.716 -4.084,-2.497c-0.029,0.023 -0.042,0.036 -0.07,0.06" style="fill-rule:nonzero;"/><path d="M565.175,160.084c0.04,0.046 0.079,0.089 0.117,0.131c0.016,-0.106 -0.038,-0.129 -0.117,-0.131" style="fill-rule:nonzero;"/><path d="M461.988,190.113c-0.034,-0.011 -0.049,-0.017 -0.083,-0.028c-0.859,1.194 -1.842,2.652 -2.738,3.874c-1.593,1.996 -2.378,2.998 -3.926,5.018c2.785,0.864 4.173,1.32 6.933,2.281c-0.058,-2.547 -0.099,-3.824 -0.207,-6.378c-0.063,-1.577 0.001,-3.297 0.021,-4.767" style="fill-rule:nonzero;"/><path d="M661.072,268.184c-0.071,0.07 0.135,0.04 0,0" style="fill-rule:nonzero;"/><path d="M552.021,245.768c-2.174,2.156 -3.261,3.235 -5.435,5.391c0.936,0.948 1.401,1.426 2.327,2.391c2.631,2.743 5.369,3.436 7.151,1.817c1.94,-1.766 1.247,-4.429 -1.379,-7.171c-1.28,-1.336 -2.189,-2.101 -2.664,-2.428" style="fill-rule:nonzero;"/><path d="M342.768,183.411c-5.259,1.128 -7.032,5.812 -5.8,10.655c1.222,4.808 4.902,7.884 9.586,6.879c4.725,-1.013 6.706,-5.377 5.816,-10.367c-0.802,-4.494 -4.3,-8.303 -9.602,-7.167" style="fill-rule:nonzero;"/><path d="M315.238,191.266c-1.423,0.5 -2.386,0.967 -2.89,1.267c1.122,3.051 1.682,4.575 2.805,7.625c0.704,-0.067 1.479,-0.309 2.486,-0.664c3.703,-1.309 5.473,-3.59 4.612,-6.259c-0.827,-2.566 -3.456,-3.216 -7.013,-1.969" style="fill-rule:nonzero;"/><path d="M267.548,214.667c-1.487,0.962 -2.449,1.735 -3.049,2.311c3.864,5.773 5.795,8.66 9.659,14.433c0.652,-0.308 1.561,-0.915 2.438,-1.483c5.611,-3.632 7.445,-8.324 4.396,-13.634c-2.639,-4.596 -7.571,-5.424 -13.444,-1.627" style="fill-rule:nonzero;"/><path d="M369.729,179.332c-1.706,0.157 -2.787,0.381 -3.299,0.545c0.328,3.044 0.492,4.567 0.82,7.612c1.232,-0.131 1.848,-0.193 3.081,-0.307c3.505,-0.325 5.557,-2.03 5.395,-4.432c-0.177,-2.618 -2.497,-3.74 -5.997,-3.418" style="fill-rule:nonzero;"/><path d="M465.175,610.237c-1.359,-4.048 -2.038,-6.073 -3.396,-10.121c-4.261,1.431 -6.406,2.09 -10.717,3.3c1.153,4.111 1.73,6.167 2.884,10.278c-1.95,0.547 -2.928,0.81 -4.886,1.314c-2.01,-7.82 -4.022,-15.641 -6.038,-23.46c1.755,-0.452 2.633,-0.688 4.381,-1.178c1.049,3.737 1.571,5.607 2.62,9.344c4.237,-1.188 6.344,-1.838 10.532,-3.244c-1.235,-3.679 -1.851,-5.52 -3.087,-9.199c1.728,-0.58 2.588,-0.881 4.306,-1.499c2.735,7.598 5.469,15.196 8.206,22.793c-1.916,0.69 -2.878,1.025 -4.805,1.672m-27.232,7.749c-7.076,1.586 -14.589,-2.031 -15.626,-9.674c-0.993,-7.321 4.129,-13.548 11.199,-14.955c2.886,-0.574 5.082,-0.495 6.088,-0.255c-0.046,1.458 -0.071,2.187 -0.131,3.648c-1.284,-0.216 -3.017,-0.262 -5.024,0.159c-5.005,1.049 -8.139,4.673 -7.181,10.416c0.881,5.283 4.868,8.097 10.761,6.863c1.938,-0.406 3.912,-1.221 5.093,-2.014c0.632,1.284 0.951,1.925 1.593,3.206c-1.039,0.764 -3.545,1.883 -6.772,2.606m-20.841,2.917c-1.299,-2.616 -1.933,-3.93 -3.175,-6.562c-3.359,0.344 -5.041,0.486 -8.409,0.705c-0.739,2.8 -1.123,4.199 -1.917,6.993c-2.069,0.113 -3.104,0.159 -5.174,0.227c2.653,-8.12 5.026,-16.331 7.093,-24.619c2.292,-0.162 3.437,-0.259 5.724,-0.483c3.47,7.82 7.222,15.515 11.251,23.062c-2.154,0.295 -3.233,0.432 -5.393,0.677m-27.404,1.485c0.019,-4.269 0.029,-6.403 0.048,-10.673c-4.436,-0.021 -6.656,-0.085 -11.087,-0.326c-0.232,4.264 -0.348,6.395 -0.579,10.659c-2.005,-0.109 -3.006,-0.174 -5.009,-0.326c0.613,-8.052 1.221,-16.104 1.834,-24.156c1.795,0.136 2.692,0.195 4.489,0.292c-0.211,3.876 -0.317,5.815 -0.527,9.691c4.355,0.237 6.536,0.299 10.897,0.32c0.017,-3.882 0.027,-5.824 0.045,-9.704c1.798,0.008 2.695,0.002 4.494,-0.028c0.135,8.073 0.274,16.147 0.41,24.221c-2.006,0.034 -3.009,0.039 -5.015,0.03m-19.8,-21.035c-1.14,-0.617 -2.757,-1.22 -4.787,-1.467c-5.059,-0.614 -9.194,1.814 -10.133,7.561c-0.864,5.285 2.01,9.229 7.967,9.953c1.96,0.238 4.081,0.102 5.447,-0.27c0.183,1.419 0.277,2.127 0.47,3.546c-1.222,0.391 -3.939,0.645 -7.216,0.293c-7.205,-0.773 -13.156,-6.616 -11.678,-14.181c1.415,-7.246 8.258,-11.502 15.403,-10.562c2.908,0.382 4.95,1.161 5.82,1.712c-0.511,1.367 -0.77,2.051 -1.293,3.415m-26.325,16.23c-1.975,-0.407 -2.961,-0.622 -4.929,-1.072c1.799,-7.872 3.601,-15.744 5.398,-23.616c1.764,0.403 2.649,0.596 4.419,0.96c-1.629,7.909 -3.26,15.818 -4.888,23.728m-13.978,-3.332c-0.25,-2.913 -0.361,-4.368 -0.553,-7.276c-3.276,-0.925 -4.907,-1.418 -8.155,-2.468c-1.729,2.326 -2.607,3.482 -4.388,5.782c-1.99,-0.667 -2.982,-1.011 -4.96,-1.724c5.506,-6.546 10.771,-13.295 15.783,-20.226c2.214,0.702 3.325,1.039 5.553,1.679c0.364,8.555 1.037,17.095 2.012,25.602c-2.122,-0.522 -3.18,-0.796 -5.292,-1.369m-114.826,-36.06c0.545,-0.757 0.071,0.064 -0,0m445.254,-73.143c-7.001,4.242 -15.987,7.92 -24.106,7.92c-2.873,-0 -5.581,-0.447 -8.047,-1.329c-7.136,-2.549 -12.163,-7.654 -14.157,-14.375c-0.974,-3.279 -1.126,-6.626 -0.745,-9.914c-2.366,0.83 -4.85,1.31 -7.418,1.31c-4.885,-0 -9.453,-1.704 -13.211,-4.93c-2.839,-2.439 -6.937,-7.262 -7.259,-14.949c-1.456,2.814 -3.139,5.797 -5.053,8.962c-3.792,6.27 -24.031,37.549 -50.157,37.549c-0.824,0 -2.501,-0.1 -2.516,-0.101c-1.292,0.886 -2.379,2.388 -3.3,3.353c-4.037,4.233 -7.469,6.559 -12.303,9.714c-2.908,1.454 -5.14,3.828 -7.415,6.085c-2.702,2.679 -6.34,4.846 -8.657,7.725c0.162,-0.14 -3.759,5.341 -4.151,4.953c-0.448,0.338 -0.226,0.439 0.666,0.305c-13.72,9.931 -29.048,17.051 -45.123,22.257c-8.243,2.669 -14.984,2.545 -23.542,3.198c-7.092,-0.257 -21,2.462 -21.252,2.846c-0.927,1.412 -7.73,2.398 -11.257,2.694c-3.609,0.597 -9.711,-0.112 -11.361,-0.204c-5.57,-0.307 -14.154,0.396 -18.889,-3.053c1.279,0.797 -1.946,0.635 -2.806,-0.448c-2.004,-2.655 -5.542,-1.139 -8.219,-2.049c-3.198,-1.088 -7.031,-1.248 -10.379,-1.497c-4.546,-0.339 -8.947,-2.134 -13.217,-3.663c-3.536,-1.265 -11.361,-5.024 -11.926,-5.422c-1.151,-0.311 -5.374,-3.105 -6.036,-3.495c-6.399,-3.771 -11.876,-8.306 -17.93,-12.513c-2.239,-1.556 -12.957,-13.589 -15.136,-8.145c-0.896,-1.171 -3.224,-3.652 -3.275,-3.979c-5.434,-6.235 -11.78,-12.154 -16.111,-19.19c-1.792,-2.909 -2.984,-17.285 -7.787,-15.161c-1.127,0.498 -3.177,0.683 -5.064,0.872c-8.556,1.903 -17.242,3.77 -25.005,4.821c-1.33,0.18 -10.825,0.843 -12.103,0.843c-9.885,-0 -18.371,-1.795 -25.224,-5.335c-8.474,-4.377 -14.202,-11.252 -16.743,-20.01c-6.159,3.059 -11.92,3.539 -16.243,3.539c-2.628,-0 -5.176,-0.191 -7.64,-0.375c-2.448,-0.183 -4.759,-0.355 -7.145,-0.355c-2.043,-0 -3.91,0.131 -5.71,0.402c-4.096,0.617 -8.89,3.085 -13.965,5.697c-1.487,0.766 -3.025,1.557 -4.59,2.325c-1.507,0.74 -3.472,1.454 -5.683,2.131c10.28,22.778 20.559,45.556 30.84,68.336c3.634,-1.787 7.23,-3.849 10.971,-5.394c3.734,0.163 10.902,-3.271 14.351,-4.791c4.564,-2.012 10.828,-4.388 14.497,-7.84c1.677,-1.175 3.931,-2.239 4.712,-2.719c1.935,-1.285 2.93,-2.608 4.978,-3.596c-0.734,2.571 3.101,7.57 3.039,7.426c1.15,2.693 0.628,4.444 2.82,6.834c3.331,3.631 5.482,8.144 8.701,11.89c3.744,4.358 7.382,8.266 12.216,11.254c-0.016,-0.013 -0.032,-0.026 -0.048,-0.039c1.769,1.38 3.992,2.934 6.002,4.165c0.022,-0.032 0.034,-0.063 0.052,-0.094c-0.009,0.015 -0.009,0.032 -0.02,0.047c0.387,0.413 0.458,0.228 0.214,-0.557c2.834,2.522 9.382,6.228 3.363,9.037c0.718,-0.267 -3.443,2.734 -3.85,3.004c-2.794,1.855 -5.642,6.999 -7.706,9.656c-3.499,4.503 -8.031,11.141 -9.5,16.65c0.064,-0.116 0.121,-0.235 0.179,-0.354c-0.715,1.707 -1.478,3.716 -3.051,5.598c-1.327,1.787 -3.642,3.718 -4.666,3.865c-0.722,2.742 0.037,3.786 3.1,5.679c4.825,2.985 9.65,5.969 14.476,8.954c5.38,3.327 10.76,6.654 16.14,9.982c5.292,3.273 10.489,8.74 10.786,8.623c2.806,-1.105 10.483,4.53 11.175,4.958c3.095,1.915 6.397,4.765 9.789,6.055c2.229,4.346 7.174,-6.067 7.347,-6.374c1.919,-0.945 3.424,-4.818 4.716,-6.636c4.88,-6.867 13.197,-10.375 15.731,-19.167c-0.265,0.545 1.891,-5.578 1.815,-5.526c0.567,-1.408 1.25,-1.477 2.818,-1.345c0.077,-0.181 7.561,-0.047 8.705,1.237c1.609,1.885 3.302,1.744 5.378,2.385c3.558,1.098 7.215,1.649 10.777,2.97c6.883,2.554 17.362,8.567 24.447,8.117c-0.017,-0.001 5.705,-0.814 8.322,-0.912c0.142,0.317 1.852,3.249 2.411,3.903c1.258,1.56 -0.015,3.175 0.141,4.869c0.347,3.742 1.752,6.423 1.105,10.351c-1.093,6.635 -1.233,19.359 -1.363,18.465c0.309,1.452 4.064,11.996 2.349,12.764c-0.342,-1.18 -0.929,-0.785 -1.453,1.589c-0.903,4.088 10.071,3.829 9.735,3.717c2.424,0.454 3.991,1.83 6.617,1.758c4.858,-0.135 9.485,-0.352 14.352,-0.1c8.894,0.461 19.389,1.756 28.116,0.178c-0.101,0.004 6.141,-0.894 9.158,-1.49c-1.626,-0.09 8.834,-0.917 8.876,-1.152c2.094,-1.202 1.12,-5.927 1.12,-8.938c0,-1.957 1.747,-3.488 1.838,-4.913c0.104,1.898 0.376,-1.565 0.341,-1.982c-0.077,-0.892 -0.898,-2.964 -0.865,-2.914c-0.611,-1.467 -1.314,-2.975 -1.314,-4.493c0,-9.313 1.766,-18.664 0.39,-27.935c-0.667,-4.5 -1.442,-5.685 3.261,-6.344c6.082,-0.853 11.791,0.182 18.011,-1.156c11.117,-2.393 23.06,-7.025 33.088,-12.426c-0.223,0.234 8.525,-5.057 8.991,-4.936c1.099,0.285 3.885,6.209 4.415,7.056c6.387,10.206 6.96,22.854 16.877,31.006c1.437,1.49 4.576,4.909 4.923,5.454c0.159,-0.371 0.255,-0.757 0.289,-1.158c0.968,1.65 1.644,2.836 2.665,4.26c-1.522,6.468 7.846,-0.327 8.761,-0.763c-2.55,1.405 1.471,-2.284 1.095,-2.045c1.817,-1.152 3.9,-1.101 5.69,-2.402c3.312,-2.406 6.227,-5.116 9.718,-7.316c8.889,-4.579 23.34,-15.513 23.425,-15.853c0.261,-1.041 4.509,-4.583 5.405,-4.869c1.725,-1.546 3.098,-3.686 2.351,-3.134c0.613,-0.775 6.316,-4.542 6.316,-4.542c4.157,-1.512 1.473,-3.259 3.027,-6.053c-0.441,-0.147 -1.13,0.692 -1.387,1.1c-0.558,-1.009 -3.177,-7.292 -3.27,-7.521c-1.391,-3.461 -4.355,-6.993 -6.136,-10.37c-2.9,-5.501 -7.088,-13.326 -12.869,-16.302c0.023,0.018 -1.639,-0.449 -2.29,-1.414c-2.682,-3.966 -6.243,-6.292 -0.796,-9.194c-1.278,0.804 0.624,-2.217 1.974,-2.504c3.467,-0.653 5.896,-6.099 7.19,-8.89c3.003,-4.105 6.929,-7.767 10.315,-11.562c5.208,-5.837 15.607,-17.561 15.79,-17.698c0.55,2.905 4.537,2.815 5.43,2.787c2.045,-0.017 2.665,1.905 4.285,2.704c3.661,1.806 7.502,2.727 11.172,4.794c4.834,3.043 8.182,6.452 14.358,5.234c2.614,-0.148 4.749,1.01 7.064,2.008c1.724,0.744 4.103,3.119 5.495,3.528c4.599,1.353 3.062,-0.463 5.416,-2.645c2.78,-2.344 5.866,-11.789 7.96,-15.909c2.292,-4.513 4.585,-9.024 6.878,-13.536l3.936,-4.889c0.357,-0.703 8.142,-18.885 10.006,-22.553c-5.531,1.539 -11.147,2.887 -16.809,3.989Z" style="fill-rule:nonzero;"/><path d="M221.384,249.115c3.179,-3.448 5.802,-5.27 8.305,-5.832c2.021,-0.452 3.911,0.087 5.361,1.585c2.175,2.247 1.726,5.635 0.262,8.262c0.031,0.031 0.046,0.045 0.077,0.076c2.015,-1.134 4.141,-0.816 6.271,0.328c2.769,1.486 5.307,2.958 6.353,3.248c-1.549,1.491 -2.316,2.248 -3.835,3.787c-0.811,-0.201 -2.739,-1.1 -5.449,-2.6c-2.851,-1.579 -4.594,-1.266 -6.797,1.019c-0.762,0.826 -1.141,1.242 -1.894,2.082c2.96,2.663 4.44,3.995 7.4,6.658c-1.415,1.575 -2.114,2.374 -3.498,3.994c-6.049,-5.167 -12.097,-10.333 -18.147,-15.498c1.241,-1.952 3.263,-4.586 5.591,-7.109m24.841,-23.037c7.661,4.109 15.149,8.541 22.432,13.289c-1.782,1.312 -2.667,1.982 -4.421,3.349c-2.488,-1.543 -3.745,-2.3 -6.28,-3.79c-2.88,2.303 -4.301,3.49 -7.1,5.936c1.041,2.738 1.573,4.099 2.669,6.804c-1.602,1.434 -2.396,2.163 -3.969,3.646c-3.32,-8.046 -6.321,-16.222 -8.993,-24.506c2.241,-1.933 3.374,-2.879 5.662,-4.728m19.028,-14.034c4.872,-3.166 8.804,-4.322 12.135,-4.131c3.5,0.2 6.486,1.89 8.45,5.488c2.084,3.819 2.079,7.456 0.814,10.586c-1.327,3.283 -4.507,6.46 -9.018,9.43c-2.444,1.609 -4.359,2.767 -5.851,3.604c-4.582,-6.492 -9.162,-12.986 -13.743,-19.479c1.913,-1.705 4.389,-3.664 7.213,-5.498m28.168,-15.831c3.007,-1.395 5.448,-1.819 7.153,-1.842c0.078,1.514 0.12,2.271 0.214,3.782c-1.204,0.011 -3.403,0.223 -5.957,1.41c-3.162,1.469 -3.828,3.466 -3.192,4.756c0.825,1.677 2.767,1.682 6.813,1.177c5.245,-0.654 8.287,0.4 9.639,3.615c1.52,3.613 -0.254,7.92 -6.576,10.956c-2.631,1.264 -5.632,1.998 -7.36,1.972c-0.276,-1.512 -0.411,-2.27 -0.672,-3.787c1.825,-0.015 4.396,-0.511 6.74,-1.632c2.904,-1.389 4.016,-3.328 3.205,-5.131c-0.752,-1.673 -2.514,-2.108 -6.258,-1.54c-4.923,0.747 -8.651,0.348 -10.268,-2.742c-1.851,-3.537 0.464,-8.184 6.519,-10.994m20.471,-8.094c3.822,-1.345 6.832,-1.564 9.039,-0.902c2.045,0.612 3.692,2.115 4.335,4.286c0.655,2.206 0.354,4.24 -0.76,5.936c-1.509,2.298 -4.267,4.09 -7.714,5.307c-0.911,0.322 -1.714,0.574 -2.435,0.685c1.266,3.442 1.9,5.163 3.166,8.605c-1.847,0.676 -2.766,1.026 -4.599,1.749c-2.93,-7.412 -5.859,-14.825 -8.789,-22.237c1.781,-1.011 4.274,-2.203 7.757,-3.429m28.301,-8.224c6.994,-1.52 14.421,2.184 15.58,9.65c1.122,7.216 -3.758,13.441 -10.702,14.929c-6.685,1.431 -13.487,-2.141 -15.403,-8.886c-2.141,-7.534 3.353,-14.135 10.525,-15.693m26.694,-3.84c4.306,-0.407 7.258,-0.006 9.35,1.25c1.692,1.014 2.683,2.675 2.774,4.758c0.136,3.124 -2.271,5.349 -4.905,6.317c0.003,0.043 0.005,0.064 0.007,0.107c2.101,0.509 3.392,2.163 4.177,4.438c1.019,2.956 1.888,5.744 2.441,6.657c-2.006,0.078 -3.011,0.129 -5.014,0.254c-0.444,-0.692 -1.234,-2.647 -2.2,-5.579c-1.016,-3.082 -2.424,-4.016 -5.343,-3.812c-1.032,0.098 -1.547,0.151 -2.578,0.26c0.427,3.96 0.64,5.939 1.066,9.899c-1.935,0.206 -2.901,0.321 -4.832,0.573c-1.036,-7.887 -2.076,-15.774 -3.116,-23.661c2.033,-0.591 5.022,-1.164 8.173,-1.461m37.108,-0.352c-0.097,1.478 -0.147,2.217 -0.244,3.694c-3.393,-0.223 -5.091,-0.302 -8.488,-0.398c-0.199,6.837 -0.393,13.674 -0.59,20.512c-1.96,-0.056 -2.94,-0.072 -4.9,-0.082c0.036,-6.84 0.067,-13.681 0.103,-20.521c-3.364,-0.016 -5.047,0.007 -8.41,0.114c-0.047,-1.48 -0.071,-2.221 -0.119,-3.7c7.591,-0.113 15.065,0.013 22.648,0.381m14.412,1.4c0.566,4.508 0.823,6.761 1.279,11.269c0.299,3.018 0.503,6.174 0.587,8.621c0.033,0.005 0.048,0.007 0.08,0.012c0.827,-2.456 2.046,-5.179 3.33,-8.067c1.923,-4.134 2.912,-6.193 4.954,-10.288c2.269,0.396 3.404,0.608 5.664,1.06c0.293,4.604 0.409,6.905 0.587,11.501c0.06,2.953 0.088,5.719 -0.084,8.37c0.032,0.006 0.049,0.01 0.081,0.017c1.061,-2.489 2.323,-5.043 3.747,-7.776c2.156,-3.988 3.26,-5.97 5.527,-9.914c2.172,0.535 3.258,0.815 5.418,1.403c-4.729,7.04 -9.219,14.239 -13.46,21.583c-2.042,-0.479 -3.065,-0.705 -5.116,-1.131c-0.162,-4.69 -0.275,-7.037 -0.561,-11.734c-0.174,-2.853 -0.253,-5.209 -0.156,-7.86c-0.035,-0.006 -0.052,-0.009 -0.087,-0.016c-0.948,2.457 -1.923,4.653 -3.24,7.231c-2.094,4.258 -3.109,6.398 -5.071,10.698c-2.097,-0.339 -3.147,-0.494 -5.251,-0.779c-1.086,-8.33 -2.429,-16.626 -4.027,-24.873c2.322,0.24 3.482,0.375 5.799,0.673m46.18,10.844c0.443,8.643 0.549,17.304 0.304,25.955c-1.997,-0.791 -3,-1.172 -5.013,-1.909c0.023,-2.916 0.019,-4.377 -0.021,-7.304c-3.344,-1.177 -5.025,-1.73 -8.405,-2.764c-1.728,2.343 -2.579,3.522 -4.25,5.893c-1.956,-0.575 -2.938,-0.85 -4.905,-1.375c4.92,-7.105 10.124,-14.012 15.591,-20.704c2.69,0.842 4.031,1.282 6.699,2.208m6.205,15.497c3.352,-8.306 13.416,-8.17 20.24,-4.707c3.33,1.69 5.717,3.613 6.701,4.756c-1.107,1.02 -1.657,1.533 -2.752,2.563c-1.173,-1.316 -2.765,-2.644 -5.616,-4.051c-5.78,-2.853 -11.146,-1.8 -13.4,3.375c-2.196,5.044 0.063,9.544 5.255,12.093c1.669,0.819 2.942,1.23 3.646,1.31c1.112,-2.162 1.67,-3.243 2.781,-5.404c-1.806,-0.929 -2.714,-1.383 -4.537,-2.266c0.608,-1.256 0.913,-1.882 1.522,-3.138c3.707,1.796 5.544,2.739 9.179,4.719c-2.345,4.307 -3.519,6.461 -5.865,10.77c-1.826,-0.34 -5.213,-1.247 -8.459,-2.836c-4.156,-2.036 -6.931,-4.399 -8.486,-7.442c-1.456,-2.849 -1.578,-6.347 -0.209,-9.742m33.196,2.511c2.235,1.29 3.345,1.952 5.551,3.312c0.544,5.216 0.743,7.814 0.998,12.976c0.123,3.321 -0.036,6.616 -0.456,9.526c0.028,0.019 0.041,0.029 0.069,0.049c1.539,-2.873 3.248,-5.495 5.362,-8.535c1.928,-2.776 2.893,-4.163 4.822,-6.938c1.731,1.207 2.592,1.822 4.302,3.073c-4.763,6.524 -9.522,13.051 -14.283,19.576c-1.719,-1.257 -2.584,-1.873 -4.327,-3.081c0.032,-5.175 -0.025,-7.783 -0.29,-13.028c-0.135,-3.247 -0.23,-6.776 -0.076,-9.881c-0.07,-0.025 -0.104,-0.037 -0.173,-0.062c-1.429,2.791 -3.018,5.57 -5.09,8.981c-1.8,2.963 -2.701,4.444 -4.501,7.406c-1.6,-0.974 -2.403,-1.449 -4.02,-2.383c4.039,-6.997 8.073,-13.995 12.112,-20.991m25.932,17.45c4.852,3.771 9.551,7.739 14.085,11.888c-0.979,1.073 -1.467,1.61 -2.445,2.683c-3.704,-3.389 -5.594,-5.022 -9.437,-8.169c-1.581,1.94 -2.371,2.91 -3.952,4.849c3.529,2.889 5.265,4.387 8.673,7.486c-0.965,1.066 -1.447,1.598 -2.412,2.664c-3.354,-3.049 -5.061,-4.522 -8.534,-7.364c-1.798,2.207 -2.697,3.31 -4.496,5.517c3.755,3.073 5.598,4.672 9.208,7.995l-2.454,2.676c-5.084,-4.68 -7.704,-6.894 -13.074,-11.069c4.947,-6.385 9.89,-12.772 14.838,-19.156m24.775,22.059c3.236,3.362 4.929,6.119 5.365,8.679c0.352,2.068 -0.282,3.941 -1.86,5.302c-2.367,2.043 -5.757,1.354 -8.311,-0.282c-0.031,0.028 -0.048,0.043 -0.08,0.072c1.027,2.095 0.601,4.221 -0.655,6.292c-1.633,2.693 -3.235,5.157 -3.577,6.195c-1.429,-1.673 -2.153,-2.498 -3.615,-4.124c0.244,-0.803 1.248,-2.683 2.898,-5.308c1.736,-2.761 1.515,-4.534 -0.623,-6.857c-0.776,-0.805 -1.165,-1.205 -1.949,-1.997c-2.829,2.803 -4.243,4.206 -7.071,7.011c-1.471,-1.489 -2.213,-2.222 -3.713,-3.665c5.505,-5.743 11.012,-11.484 16.517,-17.228c1.836,1.318 4.305,3.449 6.674,5.91m-456.16,62.648c-0.14,-0.146 -0.081,-0.307 0.175,-0.485c0,0 -0.03,0.011 -0.064,0.022c0.019,-0.006 0.037,-0.012 0.064,-0.022c2.898,0.782 5.38,2.64 8.372,2.639c1.822,-0 3.64,0.459 5.354,1.111c4.759,1.809 9.518,3.618 14.277,5.428c5.851,2.225 21.391,8.133 21.391,8.133c0.507,0.192 -2.569,4.48 -2.939,5.037c1.244,0.25 9.839,2.672 12.301,3.953c8.445,4.396 13.033,13.84 15.016,19.078c0.761,2.009 1.665,4.802 2.315,8.044c0.125,-0.047 0.252,-0.107 0.384,-0.191c2.329,-1.478 6.159,-6.534 6.32,-6.737c10.025,-21.899 22.374,-26.633 31.15,-26.632l0.132,0c2.532,0.014 7.912,0.821 8.185,0.774c0.871,-0.649 5.668,-11.481 7.568,-15.106c10.443,-19.918 23.684,-36.604 41.277,-50.815c5.235,-4.228 14.11,-9.317 12.483,-7.898c0.765,-0.432 7.24,-5.109 6.073,-3.95c0.643,-0.498 9.415,-4.792 9.189,-4.642c0.677,0.209 23.483,-11.531 31.761,-14.763c9.055,-3.535 18.383,-5.633 28.059,-5.577c2.356,0.014 10.618,0.833 11.604,-2.003c0.202,-0.582 7.787,-2.288 7.787,-2.288c2.298,-0.339 15.75,-2.461 20.226,-2.341c13.77,0.367 27.542,2.225 40.844,5.832c12.7,3.444 25.011,8.437 36.183,15.342c5.927,3.663 11.746,8.388 17.151,12.791c2.585,2.105 5.06,3.834 7.913,5.546c1.081,0.788 5.877,4.194 6.923,4.589c1.274,0.48 3.938,4.373 4.06,5.309c0.188,1.446 2.685,3.236 3.704,4.221c1.953,1.888 3.803,3.82 5.832,5.681c1.104,1.013 7.076,3.765 5.943,3.843c3.644,1.675 7.04,8.36 9.592,11.878c1.64,2.261 3.261,4.535 4.871,6.816c4.023,0.673 8.091,1.541 12.094,2.396c4.603,0.984 8.951,1.913 12.962,2.5c4.996,0.73 6.896,1.081 10.278,2.453c8.977,3.642 12.29,9.881 14.285,16.262c3.668,-5.11 7.471,-9.971 10.862,-13.453c5.515,-5.663 10.828,-8.676 17.768,-10.074c2.451,-0.494 4.466,-0.724 6.343,-0.724c7.68,0.001 11.911,4.033 13.75,6.435c0.078,0.103 3.905,-6.416 6.121,-9.505c6.544,-9.123 13.867,-14.577 21.384,-16.018c-0.354,-1.217 -0.037,-4.586 -0.102,-5.163c-0.098,-0.868 -0.726,-2.505 -0.928,-3.485c-0.272,-1.309 -3.856,-5.628 -4.239,-5.772c0.794,-0 -4.499,-3.599 -4.582,-3.582c-0.094,-0.176 -3.875,-7.71 -3.975,-7.866c0.372,0.372 -3.975,-11.384 -4.5,-15.928c-0.144,-1.241 0.285,-4.26 -1.831,-4.042c-1.269,0.13 -2.765,0.826 -3.601,1.822c-0.34,-1.315 -11.81,4.163 -13.381,4.899c-3.653,1.709 -7.307,3.418 -10.961,5.127c-2.614,1.223 -5.233,2.721 -7.944,3.716c-3.687,0.715 -7.038,2.702 -10.886,2.559c-2.301,-0.012 -6.923,1.265 -5.789,4.301c-3.465,-4.722 -7.085,-9.334 -10.809,-13.853c-1.206,-1.464 -2.229,-2.089 -2.172,-4.044c0.056,-1.886 0.107,-3.878 -0.754,-5.617c-1.469,-2.967 -5.034,-3.864 -7.422,-5.852c-2.347,-1.962 -4.631,-4.205 -6.698,-6.466c-2.35,-2.568 -3.489,-5.748 -5.69,-8.398c-1.111,-1.339 -5.196,-2.022 -4.201,-3.769c2.054,-3.609 4.109,-7.218 6.163,-10.826c2.01,-3.53 4.02,-7.059 6.03,-10.589c1.795,-3.153 1.932,-2.883 4.898,-4.849c2.455,-1.625 4.453,-4.429 4.746,-7.407c0.098,-0.951 -0.987,-2.951 -0.635,-3.568c0.133,-0.234 0.987,-1.402 0.755,-1.574c-2.246,-1.666 -4.561,-3.389 -6.775,-5.023c-0.339,-0.25 -7.058,-5.285 -7.284,-5.537c-0.005,0.031 -4.511,-5.003 -4.815,-5.198c0.223,0.114 -4.136,-3.656 -6.891,-5.545c-2.759,-1.893 -5.722,-3.597 -8.217,-5.844c-2.558,-2.422 -4.288,-5.292 -7.318,-7.29c-2.248,-1.482 -3.444,-1.984 -5.301,-3.829c-2.4,-2.386 -4.174,-5.083 -7.5,-6.238c-4.045,-1.362 -5.478,0.523 -8.433,1.927c0.133,-0.002 -2.207,3.029 -2.914,3.381c-1.661,0.757 -1.808,2.042 -2.709,3.373c-0.851,2.744 -4.803,4.157 -6.634,6.22c-3.276,3.693 -1.891,9.274 -4.639,13.131c-2.746,3.855 -5.491,7.711 -8.238,11.567c-1.201,1.687 -4.137,5.808 -4.137,5.808c-8.663,-4.587 -17.192,-8.711 -26.669,-11.371c-11.033,-3.097 -22.334,-7.4 -33.939,-6.961c-0,-3.995 -0.178,-8.371 -0,-12.162c0.298,-0.411 0.17,-9.441 0.313,-13.067c0.121,-3.097 0.291,-6.139 0.342,-9.241c0.021,-1.319 0.18,-2.627 0.517,-3.904c0.305,-1.345 -0.464,-3.116 -0.34,-4.093c-1.677,-1.056 0.326,-3.418 -1.908,-3.418c-1.919,0 -4.217,0.351 -6.07,-0.11c-1.429,-0.974 -27.109,0.11 -32.023,0.11c-7.774,0 -15.929,0.749 -23.665,0c-3.242,-0.465 -6.235,-1.276 -9.543,-1.458c-1.324,-0.072 -2.824,-0.474 -3.752,0.802c-0.096,0.132 -1.607,12.804 -1.607,12.804c-0,1.318 -1.489,10.477 -1.948,13.604c-0.688,4.346 -1.024,8.596 -1.553,12.943c-0.206,1.701 -0.931,3.136 -0.896,4.885c-0.126,1.267 1.002,2.248 0.136,2.579c0.085,0.1 -2.66,1.105 -2.165,1.167c-1.664,-0.315 -9.767,1.598 -11.291,1.777c-1.943,-0.771 -6.973,-0.408 -9.418,0.036c-6.625,1.251 -12.924,2.96 -19.634,3.79c-2.855,0.468 -5.151,2.463 -7.54,3.939c-2.095,1.295 -4.433,2.048 -6.597,3.219c-1.686,0.917 -1.923,2.163 -2.787,3.672c-1.276,-1.933 -5.703,-10.993 -5.943,-11.204c0.173,0.115 -3.302,-9.762 -6.75,-14.172c-2.44,-3.157 -5.429,-5.825 -7.977,-8.877c-3.045,-3.578 -3.128,-7.586 -7.555,-10.198c-2.985,-0.603 -6.637,3.131 -9.318,4.916c-3.26,2.173 -5.722,3.594 -9.216,4.753c0.008,0.11 -5.88,3.944 -8.614,6.607c-2.99,2.913 -6.712,4.989 -10.177,7.297c-4.743,3.159 -10.144,4.823 -14.638,8.452c-5.026,4.042 -10.226,8.111 -15.589,11.684c4.581,6.513 9.179,13.05 13.891,19.749c3.601,5.121 12.336,17.539 13.101,18.627c1.061,1.509 0.875,3.982 1.732,5.695c1.45,2.899 -2.707,2.454 -3.317,4.244c-6.195,6.212 -26.547,25.407 -29.874,29.44c-2.153,2.511 -8.615,4.793 -7.398,8.729c-6.023,-2.788 -12.682,-5.096 -18.268,-8.687c-3.387,-2.178 -16.344,-10.659 -19.608,-12.545c-2.125,-1.227 -7.803,-3.751 -9.955,-1.467c-0.806,0.855 -12.487,27.378 -14.619,30.317c-2.414,3.328 -4.954,5.961 -6.749,9.768c-2.902,6.157 -4.301,12.567 -8.149,18.245c-1.204,1.775 -2.141,3.433 -2.805,5.492c-0.553,1.692 -1.695,3.949 -1.923,5.606c-0.452,3.281 2.556,3.376 4.745,4.421" style="fill-rule:nonzero;"/><path d="M761.523,318.844c0.541,-2.039 0.652,-4.206 0.488,-6.308c-0.169,-2.162 -0.672,-4.321 -1.476,-6.334c-5.286,-13.228 -18.408,-7.867 -28.115,-2.975c-8.835,4.452 -13.717,8.806 -19.068,17.108c-2.998,4.652 -3.424,6.135 -5.251,11.122c-0.416,1.137 0.029,3.434 -1.181,3.434l-0.785,0l-0,1.418l2.356,17.01l-1.257,0c-2.076,0 -3.192,-2.657 -4.726,-4.057c-2.979,-2.72 -5.94,-5.463 -8.808,-8.3c-1.972,-1.951 -5.434,-5.583 -6.422,-8.425c-1.607,-4.625 -0.521,-7.68 -1.108,-12.478c-0.743,-6.085 -2.162,-11.636 -4.865,-17.161c-3.609,-7.374 -9.726,-12.762 -17.027,-6.047c-11.652,10.717 -23.766,33.406 -13.49,48.931c1.962,2.964 4.112,5.839 6.609,8.369c4.371,4.429 11.212,6.872 13.865,12.501c0.849,1.8 0.736,3.921 0.876,5.906c0.603,8.512 1.205,22.832 -0.179,31.341c-0.767,4.71 -8.27,19.793 -9.444,22.132c-3.918,7.812 -8.481,16.422 -13.537,23.684c-9.898,14.217 -11.021,13.36 -19.4,28.467c-4.03,7.266 -6.508,16.967 2.689,21.148c1.121,0.51 2.42,0.631 3.65,0.567c26.72,-1.386 35.731,-30.736 45.572,-50.545c14.239,-28.664 27.674,-57.291 47.487,-82.585c6.417,-8.193 12.967,-16.28 19.484,-24.394c0.032,-0.039 2.949,-4.647 4.811,-4.647l2.36,-0c0.085,-0.465 0.18,-0.98 -0,-1.417c-0.483,-1.173 -1.218,-0.945 -0.815,-2.125c1.806,-5.28 5.273,-9.947 6.707,-15.34" style="fill:#ba1f24;fill-rule:nonzero;"/><path d="M99.408,350.458l-0.005,0.002c-6.12,2.076 -14.508,4.762 -18.661,10.158c-2.277,2.958 -3.847,6.411 -5.456,9.779c-1.691,3.538 -3.137,7.191 -4.541,10.852c-1.617,4.217 -3.067,8.496 -4.516,12.774c2.886,4.078 5.774,8.159 8.848,12.098c2.678,3.431 5.408,6.835 8.397,9.999c2.713,2.873 5.556,5.654 8.677,8.079c1.985,1.542 4.273,2.67 6.545,3.748c1.919,0.91 3.984,1.474 5.983,2.195c7.223,2.607 23.466,12.367 12.217,20.936c-2.195,1.673 -4.622,3.09 -7.183,4.117l-55.746,22.352c-1.932,0.775 -4.625,1.548 -5.969,3.454c-0.747,1.06 -1.314,2.245 -1.807,3.444c-0.269,0.656 0,2.128 0,2.128c4.163,0.479 8.326,0.959 12.491,1.417c8.03,0.883 17.166,-1.421 24.993,-2.888c5.899,-1.105 12.008,-2.193 17.65,-4.305c4.301,-1.611 8.428,-4.463 12.435,-6.113c3.684,-1.518 7.575,-2.474 11.365,-3.705c2.886,-0.937 6.887,-0.625 9.878,-0.509c9.885,0.385 19.453,2.35 27.564,-4.536l-0,-0.001c13.741,-11.702 16.143,-36.989 5.595,-51.658c-4.563,-6.346 -13.249,-9.753 -14.892,-17.814c-0.651,-3.197 3.891,-9.133 5.238,-11.404c2.908,-4.901 6.27,-9.755 6.08,-15.738c-0.161,-5.043 -1.26,-9.63 -3.391,-14.209c-2.541,-5.456 -3.453,-6.018 -7.766,-9.588c-2.599,-2.151 -8.15,-2.12 -11.286,-2.219c-10.642,-0.336 -21.352,1.472 -31.665,3.956c-3.734,0.899 -7.433,1.969 -11.072,3.199Z" style="fill:#ba1f24;fill-rule:nonzero;"/><path d="M599.836,397.264c-5.81,1.52 -9.381,-2.978 -8.014,-8.506c1.324,-5.358 5.731,-17.902 7.663,-22.681c0.98,-2.426 2.11,-4.796 3.359,-7.096c0.26,-0.48 1.761,-2.597 2.862,-2.374c3.782,0.766 5.856,8.475 6.648,11.129c3.448,11.545 0.699,26.071 -12.518,29.528m-30.405,5.671c-2.076,4.188 -4.244,8.34 -6.649,12.349c-0.915,1.524 -3.594,5.578 -5.86,6.93c-4.365,2.603 -4.98,-3.946 -3.991,-6.521c6.021,-15.668 10.666,-26.34 17.964,-40.641c0.916,-1.794 1.912,-3.555 3.045,-5.222c1.625,-2.392 3.324,-3.686 4.919,-0.918c0.197,0.341 1.181,-0.393 1.179,0c-0.026,7.883 0.155,9.829 -2.926,17.461c-2.278,5.643 -4.977,11.11 -7.681,16.562m62.46,18.882c-1.301,-6.337 -8.948,-11.932 -7.073,-18.882c2.514,-9.315 12.676,-15.28 14.143,-24.808c0.789,-5.124 -4.959,-10.698 -6.974,-14.788c-2.909,-5.906 -3.376,-8.234 -3.378,-15.096c-0.002,-9.824 2.152,-19.552 2.412,-29.372c0.039,-1.508 -0.126,-3.211 -1.05,-4.404c-2.516,-3.252 -10.509,-0.106 -12.709,1.173c-9.382,5.45 -16.111,17.591 -21.804,26.27c-3.075,4.687 -6.008,9.466 -8.94,14.244c-2.238,-9.008 -4.478,-18.02 -7.069,-26.933c-0.58,-1.996 -1.154,-4.101 -2.43,-5.742c-2.995,-3.854 -7.503,-4.032 -11.841,-4.921c-6.151,-1.26 -12.314,-2.455 -18.48,-3.639c-8.278,-1.589 -20.798,-5.199 -28.505,0.456c-3.599,2.64 -4.727,6.153 -5.328,10.443c-0.317,2.262 -0.387,4.593 -0.052,6.852c1.896,12.772 19.481,13.494 26.567,22.067c6.259,7.573 3.419,14.155 -1.078,21.376c-1.103,1.771 -3.571,4.67 -3.636,6.975c-0.061,2.168 3.227,18.595 0.019,22.316c-2.999,3.48 -6.412,-3.151 -6.959,-4.99c-4.186,-14.073 -1.967,-14.456 -6.023,-28.667c-0.891,-3.123 -5.329,-8.758 -9.547,-7.282c-2.518,0.881 -3.027,2.357 -4.813,4.751l-21.966,29.417l-25.38,-89.103c-3.685,0.336 -7.373,0.672 -11.043,1.147c-4.926,0.637 -12.613,1.801 -17.403,3.658c-6.865,2.661 -11.063,14.656 -9.588,21.408c0.539,2.466 1.485,4.833 2.467,7.158l23.079,54.576c4.162,9.844 5.731,21.778 4.076,32.42c-1.115,7.169 -6.045,21.402 -7.727,28.259c-2.102,8.57 -1.275,15.885 7.623,19.289c2.136,0.818 5.559,0.215 7.497,-0.038l55.119,-7.185c1.204,-0.158 2.426,-0.52 3.626,-0.337c1.164,0.177 2.254,0.756 3.25,1.384c6.773,4.271 0.189,11.866 -1.039,17.004c-0.4,1.671 -0.421,3.461 -0.118,5.152c1.918,10.693 14.094,10.157 21.421,5.761c15.089,-9.054 26.453,-23.454 33.71,-39.371c1.589,-3.486 2.86,-7.125 3.912,-10.809c1.693,-5.928 -0.25,-6.451 2.947,-12.05c2.691,-4.713 8.325,-10.045 12.27,-13.514c2.785,-2.448 5.703,-4.741 8.618,-7.032c2.108,6.112 4.225,12.25 5.625,18.561c0.491,2.214 0.509,4.594 0,6.805c-0.705,3.06 -2.283,5.853 -3.575,8.715c-3.218,7.127 -5.48,9.264 -6.603,16.91c-0.627,4.265 3.33,8.028 7.409,8.188c3.545,0.14 7.414,-2.734 9.785,-4.863c7.417,-6.661 9.562,-15.309 12.232,-24.886c1.556,-5.58 2.579,-11.296 3.803,-16.959c0.499,-2.307 1.006,-4.685 0.521,-7.064" style="fill:#ba1f24;fill-rule:nonzero;"/><path d="M360.761,368.499c-2.946,0.871 -4.608,0.369 -6.989,-1.713c-3.731,-3.261 -7.1,-6.794 -7.94,-11.877c-0.568,-3.438 -0.081,-7.358 0.868,-10.577c0.295,-1 1.111,-1.782 1.836,-2.53c1.63,-1.682 6.883,-5.571 8.56,-6.32c10.177,-4.548 21.283,-0.087 24.531,10.567c0.938,3.074 0.899,6.1 -0.37,9.06c-3.257,7.606 -13.468,11.316 -20.496,13.39m15.401,59.243c-1.78,1.991 -4.343,3.467 -6.707,4.642c-5.282,2.626 -10.236,4.932 -15.501,0.72c-0.701,-0.561 -1.337,-1.213 -1.893,-1.918c-0.566,-0.721 -1.129,-1.477 -1.454,-2.334c-0.708,-1.863 -1.376,-3.778 -1.617,-5.757c-0.281,-2.299 -0.174,-4.645 0.069,-6.949c0.226,-2.145 1.589,-4.711 2.878,-6.366c1.292,-1.66 2.779,-3.159 4.191,-4.719c2.914,-3.223 7.928,-9.603 12.857,-9.411c3.436,0.133 6.041,3.302 7.854,5.82c5.595,7.769 5.889,18.956 -0.677,26.272m44.194,-50.324c-2.972,-9.085 -3.305,-16.911 -4.223,-26.313c-0.404,-4.128 -0.783,-15.191 -3.249,-19.63c-1.989,-3.58 -14.128,-11.866 -15.612,-12.848c-10.95,-7.249 -11.928,-7.409 -23.444,-12.089c-4.658,-1.892 -11.123,-1.261 -16.055,-0.974c-14.449,0.842 -30.666,4.544 -41.838,14.249c-8.043,6.986 -10.838,17.28 -4.917,27.052c2.63,4.34 6.887,7.793 8.577,12.578c1.666,4.721 0.944,9.972 1.15,14.974c0.415,10.124 0.581,20.257 0.713,30.389c0.167,12.871 0.551,31.406 -0.684,45.391c-0.413,4.676 -7.885,11.671 -7.885,11.671c-0.402,-7.527 -0.804,-15.055 -1.351,-22.573c-0.521,-7.154 -1.095,-14.306 -1.853,-21.439c-2.006,-18.883 -4.383,-38.331 -11.579,-56.115l-0.095,-0.234c-3.604,-8.842 -10.664,-23.301 -22.45,-22.678c-2.973,0.157 -5.784,1.213 -8.505,2.432c-2.371,1.062 -4.679,2.287 -6.863,3.693c-6.413,4.128 -10.618,8.684 -12.379,16.231c-3.233,13.86 6.96,26.48 11.091,38.915c2.378,7.16 0.297,16.395 -2.041,23.001c-3.541,10.001 -9.526,25.498 -21.975,25.407l-0.108,-0.001c-1.07,-0.011 -2.139,-0.054 -3.208,-0.11c-0.514,-0.027 -1.54,-0.1 -1.54,-0.1c1.683,-9.332 3.366,-18.665 4.846,-28.031c1.222,-7.74 2.413,-15.49 3.257,-23.279c0.684,-6.312 1.408,-12.653 1.325,-19.001c-0.059,-4.438 -0.645,-8.901 -1.75,-13.199c-2.797,-10.879 -14.419,-30.009 -28.317,-22.946c-9.005,4.578 -13.643,16.017 -16.824,24.592c-1.536,4.143 -2.779,8.398 -3.86,12.682c-4.576,18.132 -3.37,30.646 -3.304,50.51c0.014,4.239 0.25,8.487 -0.017,12.718c-0.178,2.807 -0.32,5.705 -1.316,8.336c-1.328,3.506 -6.734,10.301 -8.109,15.08c-2.048,7.121 0.691,15.376 6.071,20.275c6.866,6.251 17.754,7.34 26.608,6.87c20.483,-1.088 39.889,-9.555 60.275,-10.794c10.66,-0.647 21.182,6.625 31.889,5.388c4.691,-0.542 9.177,-8.485 11.235,-11.809c1.558,-2.515 3.099,-5.04 4.64,-7.565c1.844,2.794 3.689,5.589 5.638,8.31c0.855,1.195 1.614,2.093 2.693,2.942c4.886,3.845 14.552,1.222 19.819,-0.082c30.591,-7.576 53.146,-25.292 80.653,-42.656c1.764,-1.113 6.711,-4.057 7.874,-5.781c0.996,-1.476 1.376,-3.316 1.682,-5.069c0.661,-3.792 1.131,-7.636 1.205,-11.484c0.143,-7.475 -7.155,-17.761 -9.758,-23.17c-2.172,-4.513 -4.576,-8.956 -6.132,-13.716" style="fill:#ba1f24;fill-rule:nonzero;"/></g></svg>