<?xml version="1.0" encoding="UTF-8" standalone="no"?><!DOCTYPE svg PUBLIC "-//W3C//DTD SVG 1.1//EN" "http://www.w3.org/Graphics/SVG/1.1/DTD/svg11.dtd"><svg width="100%" height="100%" viewBox="0 0 1195 1047" version="1.1" xmlns="http://www.w3.org/2000/svg" xmlns:xlink="http://www.w3.org/1999/xlink" xml:space="preserve" xmlns:serif="http://www.serif.com/" style="fill-rule:evenodd;clip-rule:evenodd;stroke-linejoin:round;stroke-miterlimit:2;"><rect id="original.reduced" x="0" y="0" width="1218.9" height="1048.82" style="fill:none;"/><g id="shined"><path d="M1134.38,338.499c-3.072,-0.871 -6.402,-1.312 -9.902,-1.312c-22.09,-0 -52.694,18.589 -61.996,28.711c-2.469,2.687 -10.09,12.748 -15.747,23.647c-1.923,-20.292 -13.503,-53.988 -36.388,-58.01c-1.772,-0.311 -3.586,-0.468 -5.397,-0.468c-13.636,-0.001 -27.076,8.686 -38.865,25.122c-3.391,4.726 -6.447,9.854 -9.027,15.021c-0.116,-0.158 -0.219,-0.319 -0.34,-0.477c-2.813,-3.677 -9.287,-9.846 -21.039,-9.846c-2.871,-0.001 -5.955,0.351 -9.705,1.106c-8.143,1.642 -14.821,4.743 -21.297,10.003c-54.748,-131.395 -184.399,-223.764 -335.627,-223.764c-166.143,-0 -306.247,111.481 -349.594,263.719c-7.212,-3.365 -16.588,-5.004 -28.589,-5.004c-17.085,-0 -39.224,3.451 -59.223,9.232c-10.298,2.978 -19.294,6.346 -26.738,10.009c-10.112,4.978 -17.134,10.433 -21.466,16.677c-11.795,16.998 -23.022,51.79 -24.264,55.701l-2.922,9.209l5.397,8.015c2.544,3.776 25.406,37.3 44.492,51.176c9.779,7.11 18.844,10.033 25.462,12.169c1.281,0.413 2.636,0.851 3.835,1.279l-83.406,33.441c-7.027,2.818 -12.577,5.044 -17.68,11.836c-0.12,0.161 -0.219,0.286 -0.316,0.412c-1.737,2.238 -5.35,6.898 -6.299,14.345c-0.43,3.336 -0.183,6.577 -0.056,7.814l1.592,15.573l15.5,2.196c0.436,0.062 10.774,1.519 20.28,2.3c1.253,0.102 2.584,0.152 4.07,0.152c12.152,-0 32.26,-3.515 38.133,-4.592c11.939,-2.19 27.821,-5.61 35.685,-9.47c2.395,-1.175 4.749,-2.386 7.024,-3.558c7.766,-3.997 15.101,-7.774 21.368,-8.717c2.755,-0.415 5.612,-0.616 8.736,-0.616c3.651,-0 7.188,0.264 10.934,0.544c3.77,0.281 7.669,0.573 11.69,0.573c6.615,-0 15.43,-0.733 24.855,-5.415c1.08,3.725 2.551,7.22 4.372,10.48c53.852,133.333 184.5,227.417 337.128,227.417c152.002,-0 282.209,-93.314 336.465,-225.78c3.205,-0.207 6.315,-0.883 9.302,-1.93c-0.583,5.031 -0.349,10.152 1.139,15.168c3.051,10.286 10.744,18.096 21.662,21.996c3.774,1.35 7.918,2.034 12.313,2.034c19.429,-0 42.111,-13.76 51.324,-23.061c8.334,-8.41 18.111,-28.064 37.682,-68.175c13.873,-28.432 29.595,-60.657 43.707,-84.2c10.699,-17.857 25.574,-36.295 39.959,-54.125c4.908,-6.084 9.978,-12.37 14.843,-18.582l12.827,-0l2.605,-16.965c0.436,-2.837 0.449,-5.541 0.045,-8.082c0.605,-1.224 1.328,-2.541 2.066,-3.891c2.299,-4.197 4.907,-8.953 6.463,-14.814c5.658,-21.316 -4.72,-49.884 -27.072,-56.223" style="fill:#fff;fill-rule:nonzero;"/><path d="M480.231,808.357c-0.044,-0.014 -0.065,-0.019 -0.109,-0.032c-1.173,1.885 -2.541,4.168 -3.809,6.078c-2.247,3.127 -3.386,4.684 -5.694,7.78c3.981,1.273 5.979,1.877 9.987,3.025c-0.223,-3.863 -0.317,-5.793 -0.472,-9.648c-0.091,-2.379 0.025,-4.984 0.097,-7.203" style="fill-rule:nonzero;"/><path d="M602.032,821.233c-0.045,0.004 -0.07,0.004 -0.115,0.008c-0.389,2.184 -0.81,4.813 -1.277,7.055c-0.922,3.735 -1.401,5.6 -2.39,9.329c4.122,-0.284 6.18,-0.456 10.295,-0.864c-1.62,-3.508 -2.411,-5.267 -3.965,-8.795c-0.954,-2.178 -1.802,-4.643 -2.548,-6.733" style="fill-rule:nonzero;"/><path d="M319.991,285.715c-1.932,2.084 -3.032,3.557 -3.495,4.319c3.483,3.134 5.224,4.702 8.708,7.835c1.378,-1.534 2.072,-2.294 3.467,-3.801c3.967,-4.285 4.751,-8.503 2.121,-11.083c-2.865,-2.812 -6.838,-1.545 -10.801,2.73" style="fill-rule:nonzero;"/><path d="M352.447,255.61c0.831,2.102 1.902,4.58 2.739,6.755c1.254,3.725 1.897,5.579 3.218,9.267c3.543,-3.07 5.336,-4.568 8.962,-7.492c-3.398,-1.952 -5.11,-2.913 -8.562,-4.801c-2.126,-1.17 -4.334,-2.626 -6.25,-3.821c-0.043,0.036 -0.064,0.056 -0.107,0.092" style="fill-rule:nonzero;"/><path d="M841.688,146.659c0.061,0.07 0.12,0.137 0.178,0.201c0.025,-0.163 -0.058,-0.198 -0.178,-0.201" style="fill-rule:nonzero;"/><path d="M683.798,192.608c-0.052,-0.017 -0.075,-0.026 -0.127,-0.043c-1.315,1.826 -2.819,4.057 -4.19,5.927c-2.437,3.054 -3.638,4.588 -6.007,7.678c4.262,1.323 6.385,2.021 10.609,3.491c-0.089,-3.898 -0.152,-5.851 -0.317,-9.76c-0.096,-2.412 0.002,-5.044 0.032,-7.293" style="fill-rule:nonzero;"/><path d="M988.422,312.066c-0.11,0.106 0.206,0.06 -0,0" style="fill-rule:nonzero;"/><path d="M821.56,277.766c-3.327,3.299 -4.99,4.95 -8.317,8.249c1.433,1.45 2.145,2.182 3.561,3.658c4.026,4.197 8.215,5.258 10.942,2.78c2.969,-2.701 1.908,-6.777 -2.11,-10.972c-1.958,-2.044 -3.35,-3.215 -4.076,-3.715" style="fill-rule:nonzero;"/><path d="M501.377,182.353c-8.047,1.725 -10.76,8.893 -8.876,16.303c1.87,7.357 7.501,12.063 14.669,10.526c7.229,-1.55 10.261,-8.228 8.898,-15.863c-1.227,-6.876 -6.579,-12.705 -14.691,-10.966" style="fill-rule:nonzero;"/><path d="M459.252,194.372c-2.177,0.764 -3.651,1.48 -4.422,1.938c1.717,4.668 2.574,7 4.291,11.667c1.078,-0.102 2.264,-0.472 3.804,-1.016c5.666,-2.002 8.375,-5.492 7.058,-9.576c-1.266,-3.927 -5.288,-4.922 -10.731,-3.013" style="fill-rule:nonzero;"/><path d="M386.281,230.178c-2.276,1.472 -3.748,2.655 -4.666,3.536c5.912,8.833 8.868,13.251 14.779,22.084c0.999,-0.471 2.389,-1.399 3.731,-2.268c8.586,-5.558 11.392,-12.737 6.726,-20.862c-4.038,-7.033 -11.584,-8.3 -20.57,-2.49" style="fill-rule:nonzero;"/><path d="M542.63,176.111c-2.61,0.24 -4.265,0.583 -5.048,0.833c0.502,4.658 0.753,6.989 1.255,11.648c1.885,-0.201 2.827,-0.295 4.714,-0.47c5.364,-0.497 8.503,-3.106 8.255,-6.782c-0.27,-4.005 -3.821,-5.722 -9.176,-5.229" style="fill-rule:nonzero;"/><path d="M688.674,835.449c-2.079,-6.194 -3.118,-9.292 -5.196,-15.486c-6.52,2.189 -9.803,3.198 -16.399,5.049c1.764,6.29 2.647,9.437 4.413,15.727c-2.984,0.837 -4.48,1.239 -7.476,2.01c-3.075,-11.966 -6.154,-23.932 -9.239,-35.896c2.685,-0.692 4.029,-1.053 6.703,-1.803c1.605,5.718 2.404,8.58 4.009,14.298c6.483,-1.819 9.708,-2.813 16.116,-4.964c-1.89,-5.63 -2.833,-8.446 -4.723,-14.076c2.643,-0.887 3.96,-1.348 6.588,-2.294c4.185,11.626 8.368,23.252 12.556,34.877c-2.932,1.056 -4.403,1.568 -7.352,2.558m-41.668,11.857c-10.827,2.427 -22.324,-3.107 -23.91,-14.802c-1.519,-11.202 6.317,-20.731 17.136,-22.884c4.416,-0.878 7.776,-0.757 9.315,-0.39c-0.071,2.232 -0.109,3.347 -0.2,5.582c-1.965,-0.331 -4.616,-0.401 -7.688,0.243c-7.658,1.606 -12.453,7.151 -10.988,15.939c1.349,8.083 7.449,12.389 16.466,10.5c2.965,-0.621 5.986,-1.867 7.793,-3.081c0.967,1.965 1.455,2.945 2.437,4.905c-1.589,1.17 -5.423,2.882 -10.361,3.988m-31.889,4.463c-1.988,-4.002 -2.958,-6.013 -4.859,-10.041c-5.139,0.527 -7.714,0.744 -12.867,1.08c-1.13,4.283 -1.718,6.425 -2.933,10.699c-3.166,0.174 -4.749,0.244 -7.917,0.348c4.059,-12.424 7.691,-24.988 10.854,-37.671c3.506,-0.247 5.258,-0.395 8.758,-0.738c5.31,11.965 11.05,23.739 17.215,35.288c-3.296,0.451 -4.947,0.66 -8.251,1.035m-41.933,2.273c0.03,-6.532 0.045,-9.798 0.074,-16.332c-6.788,-0.031 -10.184,-0.13 -16.965,-0.498c-0.354,6.524 -0.532,9.785 -0.886,16.309c-3.067,-0.166 -4.599,-0.266 -7.663,-0.498c0.937,-12.321 1.867,-24.642 2.806,-36.962c2.746,0.208 4.119,0.298 6.868,0.447c-0.322,5.931 -0.484,8.898 -0.806,14.828c6.664,0.363 10.001,0.458 16.673,0.489c0.027,-5.939 0.042,-8.91 0.069,-14.848c2.752,0.013 4.125,0.004 6.877,-0.043c0.207,12.353 0.419,24.708 0.627,37.061c-3.069,0.052 -4.604,0.061 -7.674,0.047m-30.296,-32.187c-1.744,-0.944 -4.218,-1.867 -7.325,-2.244c-7.74,-0.94 -14.067,2.776 -15.504,11.569c-1.322,8.086 3.076,14.122 12.191,15.23c2.998,0.364 6.243,0.155 8.334,-0.414c0.28,2.171 0.424,3.255 0.719,5.426c-1.87,0.598 -6.027,0.987 -11.042,0.448c-11.024,-1.183 -20.129,-10.123 -17.868,-21.699c2.165,-11.087 12.635,-17.599 23.569,-16.161c4.449,0.585 7.573,1.777 8.905,2.62c-0.782,2.092 -1.178,3.138 -1.979,5.225m-40.28,24.834c-3.022,-0.622 -4.531,-0.951 -7.542,-1.64c2.752,-12.045 5.51,-24.09 8.259,-36.136c2.699,0.618 4.053,0.913 6.762,1.47c-2.493,12.102 -4.988,24.203 -7.479,36.306m-21.388,-5.098c-0.383,-4.457 -0.553,-6.684 -0.846,-11.133c-5.013,-1.416 -7.509,-2.17 -12.478,-3.777c-2.647,3.56 -3.99,5.328 -6.715,8.847c-3.045,-1.02 -4.563,-1.547 -7.59,-2.637c8.426,-10.016 16.482,-20.343 24.15,-30.949c3.388,1.075 5.088,1.59 8.497,2.569c0.557,13.09 1.587,26.158 3.079,39.175c-3.247,-0.799 -4.865,-1.219 -8.097,-2.095m-175.699,-55.176c0.834,-1.159 0.109,0.097 0,0m681.294,-111.918c-10.712,6.49 -24.461,12.118 -36.885,12.118c-4.395,0 -8.539,-0.684 -12.313,-2.033c-10.918,-3.901 -18.611,-11.712 -21.662,-21.996c-1.49,-5.017 -1.723,-10.138 -1.139,-15.169c-3.621,1.269 -7.421,2.004 -11.351,2.004c-7.475,0 -14.464,-2.608 -20.214,-7.544c-4.345,-3.732 -10.615,-11.111 -11.108,-22.873c-2.228,4.306 -4.803,8.87 -7.731,13.713c-5.803,9.594 -36.771,57.455 -76.746,57.455c-1.262,0 -3.827,-0.153 -3.85,-0.155c-1.977,1.356 -3.641,3.653 -5.05,5.131c-6.177,6.477 -11.429,10.035 -18.825,14.863c-4.45,2.225 -7.865,5.858 -11.346,9.31c-4.134,4.1 -9.701,7.416 -13.246,11.821c0.247,-0.214 -5.752,8.172 -6.351,7.578c-0.686,0.518 -0.346,0.673 1.018,0.468c-20.993,15.195 -44.446,26.09 -69.044,34.056c-12.612,4.084 -22.927,3.893 -36.022,4.892c-10.851,-0.392 -32.133,3.768 -32.518,4.355c-1.418,2.161 -11.828,3.67 -17.224,4.122c-5.523,0.914 -14.86,-0.171 -17.384,-0.311c-8.523,-0.471 -21.658,0.605 -28.903,-4.672c1.958,1.219 -2.977,0.972 -4.293,-0.685c-3.067,-4.063 -8.48,-1.743 -12.576,-3.136c-4.894,-1.665 -10.758,-1.909 -15.881,-2.29c-6.957,-0.519 -13.69,-3.266 -20.224,-5.605c-5.411,-1.936 -17.384,-7.688 -18.248,-8.296c-1.762,-0.476 -8.224,-4.752 -9.237,-5.349c-9.791,-5.769 -18.171,-12.708 -27.435,-19.146c-3.425,-2.381 -19.825,-20.793 -23.159,-12.462c-1.372,-1.792 -4.934,-5.589 -5.012,-6.089c-8.314,-9.54 -18.024,-18.597 -24.652,-29.363c-2.741,-4.452 -4.565,-26.449 -11.915,-23.198c-1.724,0.762 -4.86,1.044 -7.748,1.334c-13.092,2.912 -26.382,5.769 -38.26,7.377c-2.036,0.275 -16.564,1.289 -18.52,1.289c-15.125,0 -28.11,-2.746 -38.596,-8.163c-12.966,-6.697 -21.731,-17.217 -25.618,-30.618c-9.424,4.681 -18.24,5.415 -24.854,5.415c-4.021,0 -7.92,-0.292 -11.691,-0.573c-3.745,-0.28 -7.282,-0.544 -10.933,-0.544c-3.125,0 -5.982,0.201 -8.737,0.616c-6.266,0.944 -13.602,4.72 -21.368,8.717c-2.275,1.172 -4.628,2.383 -7.023,3.558c-2.306,1.132 -5.312,2.224 -8.695,3.26c15.729,34.854 31.458,69.707 47.188,104.562c5.561,-2.734 11.063,-5.888 16.788,-8.253c5.713,0.25 16.681,-5.005 21.959,-7.331c6.983,-3.078 16.567,-6.714 22.182,-11.995c2.565,-1.798 6.015,-3.427 7.21,-4.161c2.961,-1.967 4.483,-3.991 7.617,-5.502c-1.124,3.933 4.744,11.582 4.649,11.362c1.76,4.121 0.962,6.8 4.316,10.457c5.096,5.556 8.387,12.462 13.313,18.194c5.729,6.667 11.296,12.648 18.692,17.22c-0.025,-0.021 -0.049,-0.041 -0.073,-0.061c2.706,2.112 6.108,4.49 9.183,6.373c0.034,-0.048 0.053,-0.096 0.08,-0.144c-0.013,0.023 -0.014,0.049 -0.031,0.072c0.592,0.632 0.702,0.349 0.328,-0.851c4.336,3.858 14.355,9.529 5.146,13.827c1.099,-0.409 -5.268,4.183 -5.891,4.597c-4.275,2.838 -8.633,10.709 -11.791,14.774c-5.354,6.89 -12.289,17.048 -14.536,25.477c0.097,-0.177 0.184,-0.36 0.274,-0.541c-1.095,2.611 -2.263,5.686 -4.669,8.565c-2.031,2.734 -5.573,5.689 -7.14,5.914c-1.105,4.196 0.057,5.793 4.743,8.69c7.384,4.567 14.767,9.133 22.151,13.7c8.232,5.091 16.464,10.182 24.696,15.274c8.097,5.008 16.049,13.374 16.504,13.195c4.294,-1.691 16.041,6.932 17.099,7.586c4.736,2.93 9.788,7.29 14.978,9.264c3.411,6.651 10.978,-9.283 11.242,-9.752c2.937,-1.447 5.239,-7.372 7.216,-10.155c7.467,-10.506 20.193,-15.875 24.071,-29.328c-0.406,0.834 2.893,-8.534 2.777,-8.454c0.868,-2.155 1.912,-2.261 4.312,-2.059c0.117,-0.276 11.569,-0.072 13.32,1.893c2.462,2.884 5.052,2.669 8.229,3.65c5.444,1.679 11.04,2.522 16.49,4.544c10.532,3.908 26.566,13.109 37.407,12.42c-0.027,-0.001 8.729,-1.246 12.734,-1.396c0.216,0.485 2.833,4.971 3.689,5.972c1.924,2.388 -0.024,4.859 0.216,7.451c0.53,5.725 2.68,9.827 1.69,15.838c-1.672,10.153 -1.887,29.622 -2.085,28.253c0.472,2.223 6.218,18.356 3.593,19.531c-0.523,-1.806 -1.42,-1.201 -2.222,2.432c-1.382,6.254 15.41,5.858 14.895,5.687c3.71,0.694 6.107,2.8 10.125,2.69c7.434,-0.206 14.514,-0.539 21.96,-0.153c13.609,0.705 29.668,2.687 43.022,0.273c-0.155,0.006 9.396,-1.369 14.013,-2.28c-2.488,-0.139 13.516,-1.403 13.58,-1.763c3.204,-1.84 1.715,-9.069 1.715,-13.676c0,-2.995 2.672,-5.337 2.812,-7.518c0.159,2.904 0.575,-2.395 0.521,-3.033c-0.117,-1.365 -1.374,-4.534 -1.323,-4.458c-0.935,-2.245 -2.01,-4.552 -2.01,-6.875c0,-14.25 2.702,-28.559 0.596,-42.745c-1.021,-6.885 -2.206,-8.698 4.99,-9.706c9.306,-1.305 18.042,0.278 27.559,-1.77c17.011,-3.661 35.284,-10.749 50.629,-19.012c-0.341,0.357 13.044,-7.738 13.757,-7.553c1.681,0.436 5.944,9.5 6.755,10.796c9.773,15.617 10.65,34.97 25.824,47.444c2.199,2.279 7.003,7.51 7.533,8.345c0.243,-0.568 0.39,-1.159 0.443,-1.772c1.481,2.525 2.515,4.339 4.078,6.518c-2.329,9.897 12.004,-0.5 13.405,-1.168c-3.902,2.15 2.251,-3.495 1.675,-3.129c2.781,-1.763 5.967,-1.685 8.706,-3.675c5.068,-3.681 9.529,-7.828 14.871,-11.194c13.601,-7.007 35.712,-23.737 35.842,-24.257c0.4,-1.593 6.9,-7.013 8.271,-7.451c2.64,-2.365 4.74,-5.64 3.597,-4.795c0.938,-1.186 9.665,-6.95 9.665,-6.95c6.36,-2.313 2.254,-4.987 4.631,-9.261c-0.675,-0.225 -1.729,1.058 -2.122,1.683c-0.854,-1.544 -4.862,-11.158 -5.003,-11.508c-2.129,-5.296 -6.665,-10.701 -9.389,-15.868c-4.438,-8.417 -10.846,-20.391 -19.692,-24.944c0.035,0.028 -2.507,-0.687 -3.504,-2.163c-4.103,-6.069 -9.553,-9.628 -1.218,-14.069c-1.955,1.23 0.955,-3.392 3.021,-3.831c5.305,-0.999 9.021,-9.333 11.001,-13.603c4.596,-6.281 10.603,-11.884 15.783,-17.691c7.969,-8.932 23.882,-26.871 24.161,-27.081c0.842,4.446 6.943,4.308 8.309,4.265c3.129,-0.026 4.078,2.915 6.557,4.137c5.601,2.764 11.479,4.173 17.094,7.336c7.396,4.656 12.52,9.872 21.969,8.008c4,-0.226 7.267,1.546 10.809,3.073c2.639,1.138 6.279,4.773 8.409,5.399c7.037,2.07 4.685,-0.709 8.287,-4.047c4.253,-3.587 8.975,-18.04 12.179,-24.344c3.508,-6.905 7.016,-13.808 10.524,-20.712l6.023,-7.479c0.547,-1.077 12.458,-28.897 15.311,-34.51c-8.463,2.355 -17.057,4.418 -25.721,6.104Z" style="fill-rule:nonzero;"/><path d="M315.643,282.888c4.865,-5.276 8.878,-8.064 12.708,-8.923c3.093,-0.693 5.984,0.133 8.203,2.424c3.329,3.438 2.642,8.622 0.401,12.643c0.047,0.047 0.071,0.069 0.118,0.115c3.083,-1.735 6.337,-1.248 9.596,0.502c4.236,2.275 8.12,4.527 9.721,4.971c-2.37,2.281 -3.544,3.439 -5.868,5.794c-1.242,-0.307 -4.192,-1.683 -8.338,-3.979c-4.362,-2.416 -7.03,-1.936 -10.401,1.56c-1.165,1.264 -1.745,1.901 -2.898,3.185c4.53,4.075 6.794,6.113 11.324,10.188c-2.166,2.41 -3.236,3.633 -5.353,6.112c-9.255,-7.906 -18.51,-15.812 -27.767,-23.715c1.899,-2.986 4.992,-7.016 8.554,-10.877m38.011,-35.249c11.722,6.287 23.18,13.068 34.323,20.333c-2.727,2.008 -4.08,3.033 -6.764,5.125c-3.808,-2.361 -5.73,-3.52 -9.61,-5.799c-4.407,3.524 -6.58,5.34 -10.863,9.082c1.592,4.19 2.407,6.273 4.083,10.412c-2.451,2.194 -3.665,3.309 -6.072,5.578c-5.08,-12.311 -9.673,-24.822 -13.761,-37.497c3.429,-2.958 5.163,-4.405 8.664,-7.234m29.114,-21.475c7.455,-4.844 13.472,-6.613 18.569,-6.321c5.355,0.307 9.924,2.892 12.929,8.398c3.189,5.843 3.181,11.409 1.246,16.198c-2.03,5.024 -6.897,9.885 -13.798,14.429c-3.74,2.462 -6.67,4.234 -8.954,5.514c-7.011,-9.933 -14.018,-19.869 -21.028,-29.804c2.927,-2.61 6.716,-5.607 11.036,-8.414m43.102,-24.223c4.601,-2.135 8.336,-2.783 10.944,-2.818c0.119,2.317 0.184,3.475 0.328,5.787c-1.842,0.017 -5.207,0.341 -9.115,2.157c-4.838,2.248 -5.858,5.303 -4.885,7.278c1.263,2.566 4.234,2.573 10.426,1.8c8.025,-1.001 12.68,0.613 14.749,5.532c2.325,5.528 -0.389,12.118 -10.063,16.764c-4.026,1.934 -8.618,3.057 -11.261,3.018c-0.423,-2.314 -0.629,-3.474 -1.029,-5.795c2.792,-0.023 6.726,-0.782 10.313,-2.498c4.443,-2.125 6.145,-5.091 4.904,-7.851c-1.151,-2.559 -3.847,-3.225 -9.575,-2.356c-7.533,1.143 -13.237,0.532 -15.712,-4.196c-2.832,-5.411 0.711,-12.522 9.976,-16.822m31.322,-12.384c5.849,-2.058 10.454,-2.393 13.832,-1.381c3.129,0.937 5.648,3.237 6.633,6.559c1.001,3.375 0.541,6.487 -1.163,9.082c-2.31,3.517 -6.53,6.258 -11.804,8.121c-1.394,0.492 -2.622,0.878 -3.725,1.048c1.937,5.267 2.906,7.9 4.844,13.166c-2.826,1.035 -4.232,1.571 -7.037,2.676c-4.484,-11.341 -8.966,-22.683 -13.448,-34.025c2.724,-1.546 6.539,-3.371 11.868,-5.246m43.304,-12.584c10.702,-2.326 22.066,3.341 23.84,14.766c1.716,11.041 -5.751,20.566 -16.375,22.842c-10.229,2.191 -20.637,-3.276 -23.569,-13.596c-3.276,-11.528 5.131,-21.628 16.104,-24.012m40.846,-5.876c6.588,-0.622 11.105,-0.009 14.307,1.913c2.588,1.552 4.104,4.093 4.244,7.28c0.208,4.78 -3.475,8.184 -7.505,9.666c0.004,0.065 0.007,0.098 0.011,0.164c3.214,0.778 5.189,3.309 6.391,6.791c1.559,4.522 2.888,8.788 3.735,10.186c-3.07,0.119 -4.607,0.196 -7.673,0.388c-0.678,-1.059 -1.888,-4.051 -3.366,-8.537c-1.554,-4.716 -3.708,-6.145 -8.175,-5.832c-1.579,0.15 -2.367,0.23 -3.944,0.398c0.653,6.059 0.979,9.087 1.631,15.146c-2.961,0.316 -4.44,0.491 -7.394,0.877c-1.586,-12.068 -3.177,-24.136 -4.768,-36.204c3.11,-0.905 7.684,-1.781 12.506,-2.236m56.78,-0.538c-0.149,2.261 -0.225,3.391 -0.374,5.652c-5.191,-0.341 -7.789,-0.463 -12.988,-0.61c-0.304,10.462 -0.601,20.924 -0.903,31.387c-2.998,-0.086 -4.498,-0.111 -7.497,-0.126c0.055,-10.466 0.103,-20.933 0.157,-31.399c-5.147,-0.025 -7.722,0.01 -12.867,0.174c-0.073,-2.265 -0.109,-3.398 -0.182,-5.662c11.615,-0.173 23.051,0.02 34.654,0.584m22.052,2.141c0.866,6.898 1.259,10.346 1.957,17.243c0.458,4.619 0.769,9.447 0.898,13.192c0.05,0.007 0.073,0.011 0.122,0.018c1.265,-3.758 3.131,-7.924 5.095,-12.344c2.943,-6.325 4.456,-9.475 7.581,-15.741c3.472,0.605 5.208,0.93 8.666,1.622c0.449,7.045 0.626,10.565 0.898,17.597c0.092,4.519 0.136,8.752 -0.128,12.807c0.049,0.01 0.075,0.016 0.124,0.027c1.623,-3.809 3.554,-7.717 5.734,-11.898c3.298,-6.102 4.987,-9.135 8.456,-15.17c3.324,0.818 4.985,1.247 8.291,2.146c-7.236,10.772 -14.106,21.788 -20.596,33.025c-3.125,-0.732 -4.689,-1.079 -7.828,-1.731c-0.248,-7.175 -0.421,-10.766 -0.859,-17.954c-0.266,-4.365 -0.387,-7.97 -0.238,-12.026c-0.053,-0.01 -0.08,-0.015 -0.133,-0.025c-1.45,3.759 -2.943,7.12 -4.957,11.065c-3.205,6.515 -4.758,9.789 -7.76,16.368c-3.208,-0.518 -4.816,-0.756 -8.035,-1.192c-1.661,-12.745 -3.717,-25.439 -6.162,-38.058c3.554,0.367 5.329,0.573 8.874,1.029m70.661,16.593c0.678,13.225 0.84,26.477 0.465,39.714c-3.056,-1.209 -4.591,-1.793 -7.671,-2.92c0.036,-4.462 0.03,-6.697 -0.032,-11.176c-5.116,-1.802 -7.689,-2.647 -12.861,-4.23c-2.644,3.586 -3.945,5.389 -6.503,9.018c-2.993,-0.88 -4.495,-1.301 -7.504,-2.105c7.527,-10.871 15.49,-21.439 23.855,-31.679c4.117,1.288 6.168,1.962 10.251,3.378m9.495,23.713c5.128,-12.71 20.527,-12.502 30.969,-7.203c5.096,2.586 8.748,5.528 10.254,7.277c-1.695,1.562 -2.536,2.346 -4.212,3.922c-1.794,-2.014 -4.231,-4.045 -8.592,-6.198c-8.845,-4.366 -17.055,-2.755 -20.504,5.164c-3.361,7.718 0.096,14.604 8.04,18.503c2.554,1.254 4.502,1.883 5.58,2.005c1.701,-3.308 2.554,-4.962 4.255,-8.269c-2.764,-1.421 -4.153,-2.115 -6.943,-3.467c0.931,-1.921 1.397,-2.88 2.329,-4.801c5.672,2.748 8.483,4.19 14.046,7.22c-3.589,6.591 -5.386,9.887 -8.975,16.479c-2.794,-0.519 -7.977,-1.907 -12.943,-4.339c-6.36,-3.115 -10.605,-6.731 -12.985,-11.387c-2.228,-4.359 -2.415,-9.711 -0.319,-14.906m50.793,3.841c3.42,1.975 5.119,2.988 8.494,5.068c0.833,7.982 1.137,11.957 1.527,19.855c0.188,5.082 -0.055,10.124 -0.698,14.577c0.043,0.029 0.063,0.044 0.106,0.074c2.355,-4.396 4.97,-8.407 8.204,-13.06c2.951,-4.247 4.427,-6.369 7.378,-10.615c2.65,1.847 3.967,2.787 6.583,4.702c-7.287,9.983 -14.57,19.97 -21.855,29.954c-2.629,-1.924 -3.953,-2.867 -6.62,-4.715c0.049,-7.918 -0.039,-11.909 -0.444,-19.934c-0.206,-4.969 -0.352,-10.369 -0.117,-15.12c-0.106,-0.038 -0.159,-0.056 -0.264,-0.094c-2.186,4.271 -4.618,8.523 -7.789,13.742c-2.754,4.533 -4.132,6.8 -6.887,11.332c-2.448,-1.49 -3.677,-2.218 -6.151,-3.647c6.18,-10.706 12.353,-21.414 18.533,-32.119m39.679,26.701c7.425,5.77 14.615,11.842 21.552,18.19c-1.497,1.643 -2.244,2.464 -3.741,4.106c-5.667,-5.185 -8.559,-7.685 -14.44,-12.499c-2.419,2.967 -3.628,4.452 -6.047,7.419c5.4,4.42 8.057,6.712 13.271,11.454c-1.476,1.631 -2.214,2.445 -3.691,4.076c-5.131,-4.665 -7.744,-6.919 -13.057,-11.267c-2.752,3.377 -4.127,5.065 -6.88,8.442c5.745,4.702 8.565,7.148 14.089,12.233l-3.754,4.094c-7.78,-7.161 -11.789,-10.548 -20.005,-16.937c7.569,-9.769 15.132,-19.543 22.703,-29.311m37.909,33.754c4.952,5.143 7.542,9.363 8.209,13.279c0.539,3.164 -0.431,6.03 -2.846,8.113c-3.622,3.126 -8.809,2.072 -12.716,-0.432c-0.048,0.044 -0.074,0.067 -0.123,0.111c1.572,3.205 0.92,6.458 -1.002,9.628c-2.498,4.12 -4.95,7.89 -5.473,9.479c-2.187,-2.561 -3.294,-3.823 -5.531,-6.31c0.373,-1.229 1.909,-4.106 4.434,-8.122c2.656,-4.226 2.318,-6.938 -0.954,-10.492c-1.187,-1.232 -1.783,-1.844 -2.982,-3.057c-4.328,4.29 -6.492,6.437 -10.819,10.728c-2.251,-2.278 -3.387,-3.399 -5.682,-5.608c8.423,-8.787 16.85,-17.572 25.273,-26.361c2.81,2.017 6.587,5.278 10.212,9.044m-697.981,95.859c-0.214,-0.223 -0.125,-0.47 0.268,-0.742c-0,-0 -0.046,0.016 -0.099,0.034c0.029,-0.01 0.057,-0.019 0.099,-0.034c4.433,1.196 8.232,4.039 12.81,4.038c2.787,-0.001 5.57,0.702 8.192,1.699c7.282,2.768 14.564,5.537 21.846,8.306c8.953,3.404 32.73,12.444 32.73,12.444c0.776,0.295 -3.93,6.856 -4.496,7.708c1.903,0.383 15.055,4.088 18.821,6.048c12.922,6.727 19.942,21.177 22.977,29.192c1.164,3.074 2.547,7.348 3.542,12.309c0.191,-0.073 0.386,-0.165 0.588,-0.293c3.563,-2.262 9.423,-9.997 9.67,-10.308c15.34,-33.509 34.235,-40.752 47.664,-40.751l0.201,0.001c3.874,0.021 12.107,1.256 12.524,1.184c1.333,-0.993 8.673,-17.568 11.581,-23.115c15.978,-30.477 36.239,-56.008 63.159,-77.753c8.009,-6.469 21.59,-14.256 19.1,-12.085c1.17,-0.661 11.078,-7.817 9.293,-6.043c0.984,-0.763 14.406,-7.333 14.06,-7.103c1.036,0.319 35.932,-17.644 48.598,-22.589c13.855,-5.41 28.129,-8.62 42.934,-8.534c3.604,0.021 16.247,1.274 17.755,-3.065c0.31,-0.89 11.916,-3.501 11.915,-3.501c3.516,-0.518 24.1,-3.765 30.949,-3.582c21.07,0.561 42.143,3.404 62.496,8.924c19.432,5.27 38.27,12.91 55.365,23.475c9.069,5.605 17.972,12.834 26.243,19.572c3.955,3.221 7.742,5.866 12.107,8.486c1.654,1.206 8.993,6.418 10.594,7.021c1.949,0.735 6.026,6.692 6.212,8.124c0.288,2.212 4.108,4.951 5.667,6.458c2.989,2.889 5.819,5.846 8.924,8.694c1.689,1.55 10.828,5.76 9.094,5.88c5.575,2.563 10.772,12.792 14.677,18.175c2.509,3.459 4.99,6.938 7.453,10.429c6.155,1.029 12.381,2.357 18.506,3.666c7.043,1.506 13.695,2.927 19.833,3.825c7.645,1.117 10.551,1.654 15.727,3.754c13.735,5.573 18.805,15.119 21.858,24.882c5.611,-7.818 11.431,-15.257 16.619,-20.584c8.439,-8.665 16.569,-13.275 27.188,-15.415c3.75,-0.756 6.834,-1.107 9.705,-1.107c11.752,0.001 18.225,6.17 21.039,9.846c0.12,0.158 5.976,-9.817 9.366,-14.544c10.014,-13.959 21.218,-22.304 32.721,-24.509c-0.542,-1.862 -0.057,-7.017 -0.157,-7.9c-0.149,-1.328 -1.11,-3.833 -1.42,-5.333c-0.415,-2.003 -5.9,-8.611 -6.486,-8.832c1.216,-0 -6.884,-5.507 -7.01,-5.481c-0.145,-0.269 -5.93,-11.797 -6.083,-12.036c0.57,0.569 -6.082,-17.419 -6.886,-24.371c-0.22,-1.9 0.436,-6.519 -2.801,-6.186c-1.942,0.2 -4.231,1.264 -5.51,2.788c-0.52,-2.012 -18.071,6.371 -20.475,7.496c-5.59,2.615 -11.181,5.231 -16.771,7.846c-4,1.871 -8.007,4.163 -12.155,5.686c-5.642,1.093 -10.77,4.134 -16.658,3.915c-3.521,-0.018 -10.592,1.935 -8.858,6.581c-5.301,-7.225 -10.84,-14.282 -16.538,-21.197c-1.846,-2.24 -3.412,-3.196 -3.324,-6.187c0.086,-2.886 0.163,-5.935 -1.154,-8.595c-2.247,-4.54 -7.703,-5.913 -11.356,-8.954c-3.592,-3.003 -7.087,-6.435 -10.249,-9.894c-3.596,-3.93 -5.339,-8.795 -8.707,-12.851c-1.7,-2.048 -7.95,-3.093 -6.428,-5.767c3.144,-5.521 6.287,-11.043 9.431,-16.564c3.075,-5.401 6.15,-10.802 9.226,-16.203c2.747,-4.825 2.956,-4.412 7.495,-7.419c3.756,-2.487 6.813,-6.778 7.262,-11.334c0.15,-1.455 -1.51,-4.516 -0.972,-5.46c0.204,-0.358 1.511,-2.145 1.156,-2.408c-3.438,-2.549 -6.98,-5.186 -10.367,-7.686c-0.519,-0.382 -10.8,-8.086 -11.145,-8.472c-0.008,0.047 -6.903,-7.655 -7.368,-7.953c0.341,0.173 -6.329,-5.595 -10.545,-8.486c-4.221,-2.896 -8.755,-5.503 -12.572,-8.942c-3.914,-3.705 -6.561,-8.096 -11.198,-11.154c-3.44,-2.267 -5.27,-3.036 -8.111,-5.859c-3.673,-3.65 -6.386,-7.778 -11.476,-9.544c-6.19,-2.085 -8.382,0.8 -12.903,2.948c0.203,-0.003 -3.378,4.634 -4.46,5.173c-2.541,1.159 -2.766,3.124 -4.144,5.161c-1.302,4.199 -7.35,6.361 -10.151,9.518c-5.013,5.651 -2.894,14.19 -7.098,20.092c-4.202,5.899 -8.403,11.799 -12.606,17.698c-1.838,2.582 -6.33,8.888 -6.33,8.888c-13.256,-7.019 -26.306,-13.33 -40.806,-17.4c-16.883,-4.738 -34.174,-11.322 -51.932,-10.65c-0,-6.113 -0.272,-12.809 -0,-18.61c0.456,-0.629 0.26,-14.446 0.479,-19.994c0.186,-4.739 0.446,-9.394 0.523,-14.14c0.033,-2.018 0.276,-4.019 0.791,-5.974c0.468,-2.058 -0.709,-4.768 -0.519,-6.263c-2.566,-1.615 0.498,-5.229 -2.92,-5.229c-2.937,-0 -6.452,0.536 -9.288,-0.168c-2.187,-1.491 -41.48,0.168 -48.999,0.168c-11.895,-0 -24.373,1.145 -36.21,-0c-4.961,-0.712 -9.541,-1.953 -14.602,-2.231c-2.026,-0.111 -4.321,-0.725 -5.741,1.227c-0.147,0.202 -2.46,19.591 -2.46,19.591c-0,2.018 -2.277,16.031 -2.98,20.816c-1.052,6.651 -1.567,13.153 -2.376,19.805c-0.315,2.603 -1.425,4.799 -1.372,7.474c-0.192,1.939 1.535,3.44 0.21,3.947c0.129,0.153 -4.072,1.69 -3.314,1.785c-2.546,-0.481 -14.944,2.446 -17.277,2.72c-2.973,-1.18 -10.669,-0.625 -14.411,0.055c-10.137,1.914 -19.775,4.528 -30.042,5.798c-4.368,0.716 -7.882,3.769 -11.537,6.028c-3.206,1.982 -6.783,3.134 -10.094,4.925c-2.58,1.404 -2.942,3.31 -4.265,5.619c-1.952,-2.958 -8.726,-16.821 -9.093,-17.143c0.264,0.176 -5.052,-14.937 -10.328,-21.685c-3.734,-4.831 -8.308,-8.914 -12.207,-13.583c-4.659,-5.476 -4.786,-11.608 -11.56,-15.605c-4.566,-0.923 -10.155,4.791 -14.257,7.523c-4.989,3.324 -8.755,5.498 -14.101,7.272c0.012,0.168 -8.998,6.035 -13.181,10.11c-4.575,4.457 -10.27,7.633 -15.572,11.165c-7.258,4.834 -15.522,7.379 -22.398,12.933c-7.691,6.184 -15.648,12.411 -23.854,17.877c7.01,9.966 14.045,19.969 21.255,30.219c5.511,7.836 18.876,26.837 20.047,28.501c1.624,2.309 1.338,6.093 2.65,8.715c2.218,4.435 -4.142,3.755 -5.076,6.494c-9.478,9.505 -40.619,38.875 -45.71,45.046c-3.294,3.842 -13.182,7.335 -11.32,13.357c-9.216,-4.266 -19.405,-7.797 -27.953,-13.293c-5.182,-3.332 -25.008,-16.309 -30.002,-19.195c-3.252,-1.878 -11.94,-5.739 -15.232,-2.245c-1.234,1.309 -19.107,41.892 -22.369,46.389c-3.695,5.093 -7.58,9.121 -10.327,14.947c-4.44,9.42 -6.581,19.228 -12.47,27.916c-1.842,2.716 -3.275,5.253 -4.292,8.404c-0.845,2.589 -2.593,6.043 -2.942,8.578c-0.691,5.02 3.912,5.165 7.261,6.765" style="fill-rule:nonzero;"/><path d="M1142.12,389.581c0.828,-3.119 0.998,-6.435 0.746,-9.652c-0.258,-3.307 -1.028,-6.611 -2.258,-9.691c-8.088,-20.241 -28.166,-12.037 -43.02,-4.552c-13.518,6.812 -20.989,13.474 -29.175,26.177c-4.588,7.118 -5.24,9.387 -8.035,17.018c-0.637,1.74 0.044,5.255 -1.808,5.255l-1.201,0l0,2.169l3.605,26.028l-1.923,0c-3.177,0 -4.885,-4.066 -7.231,-6.208c-4.559,-4.162 -9.089,-8.359 -13.477,-12.7c-3.018,-2.985 -8.316,-8.542 -9.827,-12.891c-2.459,-7.077 -0.798,-11.752 -1.695,-19.093c-1.138,-9.311 -3.309,-17.805 -7.445,-26.258c-5.522,-11.284 -14.881,-19.529 -26.052,-9.254c-17.83,16.399 -36.366,51.115 -20.642,74.871c3.002,4.535 6.292,8.934 10.112,12.805c6.688,6.778 17.155,10.516 21.216,19.129c1.298,2.755 1.125,6 1.34,9.037c0.923,13.024 1.844,34.936 -0.275,47.955c-1.173,7.208 -12.654,30.286 -14.449,33.865c-5.996,11.953 -12.978,25.127 -20.714,36.239c-15.145,21.754 -16.864,20.443 -29.684,43.558c-6.167,11.119 -9.958,25.962 4.114,32.36c1.715,0.78 3.704,0.965 5.585,0.867c40.885,-2.121 54.673,-47.03 69.73,-77.34c21.788,-43.859 42.345,-87.662 72.661,-126.365c9.82,-12.536 19.842,-24.911 29.814,-37.326c0.048,-0.06 4.512,-7.111 7.361,-7.111l3.611,0c0.13,-0.711 0.275,-1.5 -0,-2.168c-0.739,-1.795 -1.864,-1.446 -1.247,-3.251c2.763,-8.08 8.069,-15.22 10.263,-23.473" style="fill:#ba1f24;fill-rule:nonzero;"/><path d="M129.005,437.955l-0.008,0.003c-9.364,3.177 -22.199,7.287 -28.553,15.543c-3.484,4.526 -5.886,9.81 -8.349,14.964c-2.587,5.413 -4.8,11.002 -6.948,16.604c-2.473,6.452 -4.692,13.001 -6.91,19.546c4.416,6.24 8.836,12.484 13.539,18.511c4.097,5.25 8.275,10.459 12.848,15.3c4.152,4.396 8.502,8.652 13.277,12.362c3.038,2.36 6.539,4.086 10.014,5.734c2.937,1.394 6.097,2.257 9.155,3.36c11.053,3.989 35.907,18.922 18.694,32.035c-3.359,2.558 -7.072,4.727 -10.991,6.299l-85.298,34.202c-2.957,1.185 -7.077,2.368 -9.133,5.285c-1.143,1.621 -2.011,3.435 -2.765,5.27c-0.412,1.003 0,3.255 0,3.255c6.37,0.733 12.739,1.467 19.112,2.168c12.287,1.351 26.267,-2.174 38.242,-4.418c9.027,-1.692 18.375,-3.356 27.007,-6.588c6.582,-2.465 12.897,-6.829 19.027,-9.354c5.638,-2.322 11.592,-3.785 17.39,-5.668c4.417,-1.435 10.539,-0.957 15.115,-0.779c15.125,0.588 29.765,3.595 42.176,-6.941l0,-0.001c21.025,-17.906 24.701,-56.598 8.562,-79.043c-6.982,-9.711 -20.273,-14.925 -22.787,-27.258c-0.997,-4.893 5.953,-13.975 8.015,-17.451c4.45,-7.498 9.594,-14.925 9.302,-24.08c-0.246,-7.717 -1.926,-14.736 -5.189,-21.742c-3.887,-8.349 -5.283,-9.207 -11.882,-14.67c-3.976,-3.293 -12.47,-3.245 -17.269,-3.396c-16.283,-0.514 -32.672,2.253 -48.451,6.053c-5.714,1.376 -11.374,3.013 -16.942,4.895Z" style="fill:#ba1f24;fill-rule:nonzero;"/><path d="M894.722,509.573c-8.89,2.326 -14.354,-4.555 -12.262,-13.015c2.026,-8.198 8.77,-27.391 11.725,-34.704c1.5,-3.712 3.228,-7.339 5.14,-10.857c0.398,-0.735 2.695,-3.975 4.38,-3.634c5.786,1.173 8.959,12.969 10.172,17.03c5.275,17.665 1.069,39.892 -19.155,45.18m-46.522,8.678c-3.178,6.409 -6.495,12.761 -10.175,18.895c-1.399,2.332 -5.499,8.536 -8.967,10.604c-6.679,3.984 -7.619,-6.038 -6.105,-9.978c9.212,-23.974 16.319,-40.303 27.486,-62.185c1.401,-2.746 2.926,-5.44 4.659,-7.99c2.487,-3.66 5.087,-5.64 7.528,-1.405c0.3,0.521 1.806,-0.601 1.804,0c-0.041,12.063 0.237,15.04 -4.478,26.717c-3.486,8.634 -7.616,17 -11.752,25.342m95.571,28.892c-1.991,-9.696 -13.691,-18.257 -10.822,-28.892c3.845,-14.253 19.395,-23.38 21.64,-37.959c1.207,-7.841 -7.589,-16.37 -10.671,-22.627c-4.451,-9.037 -5.167,-12.6 -5.169,-23.099c-0.003,-15.032 3.292,-29.917 3.69,-44.943c0.061,-2.308 -0.192,-4.913 -1.606,-6.739c-3.85,-4.976 -16.08,-0.161 -19.447,1.795c-14.355,8.339 -24.652,26.917 -33.363,40.196c-4.705,7.172 -9.192,14.485 -13.678,21.796c-3.426,-13.783 -6.853,-27.574 -10.817,-41.212c-0.888,-3.053 -1.766,-6.275 -3.718,-8.786c-4.582,-5.897 -11.481,-6.169 -18.118,-7.529c-9.412,-1.927 -18.843,-3.757 -28.278,-5.568c-12.666,-2.432 -31.823,-7.956 -43.616,0.697c-5.507,4.041 -7.233,9.416 -8.152,15.98c-0.485,3.461 -0.593,7.027 -0.08,10.484c2.901,19.543 29.809,20.648 40.651,33.765c9.577,11.588 5.232,21.659 -1.649,32.709c-1.688,2.71 -5.464,7.145 -5.563,10.672c-0.094,3.317 4.936,28.452 0.028,34.147c-4.589,5.324 -9.81,-4.822 -10.647,-7.637c-6.406,-21.532 -3.011,-22.119 -9.216,-43.863c-1.364,-4.778 -8.155,-13.401 -14.608,-11.143c-3.854,1.349 -4.632,3.607 -7.365,7.27l-33.611,45.012l-38.834,-136.339c-5.64,0.514 -11.282,1.029 -16.898,1.755c-7.537,0.975 -19.299,2.756 -26.628,5.597c-10.505,4.072 -16.928,22.427 -14.671,32.757c0.824,3.773 2.272,7.395 3.775,10.952l35.313,83.508c6.369,15.063 8.769,33.325 6.237,49.607c-1.707,10.97 -9.25,32.749 -11.823,43.24c-3.217,13.113 -1.952,24.306 11.664,29.515c3.269,1.251 8.506,0.328 11.471,-0.059l84.34,-10.994c1.841,-0.24 3.712,-0.794 5.548,-0.515c1.781,0.272 3.449,1.156 4.973,2.117c10.363,6.537 0.288,18.157 -1.591,26.019c-0.611,2.557 -0.643,5.297 -0.179,7.884c2.934,16.361 21.564,15.54 32.775,8.814c23.088,-13.853 40.478,-35.887 51.581,-60.242c2.432,-5.335 4.377,-10.902 5.987,-16.54c2.59,-9.07 -0.384,-9.87 4.508,-18.437c4.118,-7.212 12.738,-15.37 18.776,-20.678c4.26,-3.746 8.725,-7.255 13.186,-10.76c3.225,9.352 6.465,18.743 8.607,28.4c0.751,3.389 0.779,7.03 -0,10.412c-1.079,4.683 -3.494,8.957 -5.471,13.337c-4.924,10.905 -8.384,14.174 -10.104,25.874c-0.959,6.525 5.096,12.283 11.338,12.528c5.423,0.214 11.344,-4.184 14.972,-7.441c11.348,-10.192 14.63,-23.424 18.716,-38.079c2.381,-8.538 3.946,-17.284 5.82,-25.949c0.763,-3.529 1.539,-7.169 0.797,-10.809" style="fill:#ba1f24;fill-rule:nonzero;"/><path d="M528.907,465.561c-4.506,1.332 -7.05,0.564 -10.694,-2.621c-5.709,-4.991 -10.863,-10.396 -12.148,-18.174c-0.869,-5.261 -0.124,-11.259 1.328,-16.184c0.451,-1.53 1.7,-2.727 2.81,-3.872c2.493,-2.573 10.531,-8.523 13.097,-9.67c15.572,-6.96 32.565,-0.134 37.536,16.169c1.434,4.703 1.374,9.333 -0.566,13.863c-4.985,11.637 -20.608,17.314 -31.363,20.489m23.566,90.648c-2.723,3.046 -6.644,5.305 -10.263,7.104c-8.081,4.017 -15.661,7.546 -23.718,1.101c-1.073,-0.859 -2.045,-1.856 -2.895,-2.936c-0.868,-1.102 -1.728,-2.259 -2.226,-3.57c-1.083,-2.852 -2.106,-5.781 -2.475,-8.809c-0.428,-3.519 -0.265,-7.108 0.106,-10.633c0.346,-3.282 2.432,-7.208 4.404,-9.741c1.977,-2.54 4.253,-4.834 6.412,-7.221c4.46,-4.932 12.132,-14.693 19.674,-14.4c5.257,0.204 9.243,5.053 12.017,8.905c8.561,11.889 9.011,29.006 -1.036,40.2m67.622,-77.002c-4.546,-13.901 -5.056,-25.876 -6.461,-40.262c-0.617,-6.316 -1.198,-23.244 -4.972,-30.036c-3.043,-5.478 -21.617,-18.156 -23.888,-19.66c-16.754,-11.091 -18.251,-11.337 -35.872,-18.496c-7.127,-2.896 -17.02,-1.931 -24.567,-1.491c-22.108,1.287 -46.922,6.953 -64.016,21.802c-12.307,10.69 -16.584,26.44 -7.524,41.393c4.024,6.641 10.538,11.925 13.123,19.247c2.55,7.223 1.446,15.258 1.76,22.911c0.636,15.491 0.89,30.997 1.091,46.499c0.256,19.694 0.843,48.055 -1.047,69.454c-0.632,7.156 -12.065,17.858 -12.065,17.858c-0.615,-11.518 -1.23,-23.036 -2.067,-34.539c-0.796,-10.947 -1.674,-21.89 -2.834,-32.804c-3.07,-28.894 -6.707,-58.652 -17.718,-85.863l-0.145,-0.358c-5.516,-13.53 -16.318,-35.654 -34.352,-34.701c-4.549,0.24 -8.85,1.857 -13.014,3.722c-3.627,1.625 -7.159,3.498 -10.501,5.65c-9.813,6.316 -16.247,13.288 -18.94,24.835c-4.948,21.208 10.648,40.519 16.969,59.546c3.64,10.955 0.456,25.086 -3.123,35.193c-5.418,15.303 -14.575,39.016 -33.624,38.877l-0.165,-0.002c-1.637,-0.017 -3.274,-0.082 -4.909,-0.168c-0.786,-0.042 -2.357,-0.153 -2.357,-0.153c2.576,-14.279 5.152,-28.56 7.415,-42.892c1.871,-11.842 3.693,-23.7 4.985,-35.619c1.046,-9.659 2.155,-19.36 2.026,-29.074c-0.09,-6.791 -0.987,-13.619 -2.677,-20.196c-4.28,-16.646 -22.063,-45.917 -43.328,-35.109c-13.779,7.003 -20.876,24.507 -25.743,37.628c-2.351,6.339 -4.252,12.849 -5.906,19.405c-7.002,27.744 -5.157,46.892 -5.056,77.286c0.021,6.487 0.383,12.986 -0.027,19.46c-0.272,4.296 -0.488,8.73 -2.013,12.756c-2.032,5.364 -10.304,15.761 -12.407,23.074c-3.135,10.896 1.056,23.528 9.289,31.024c10.505,9.564 27.165,11.23 40.713,10.511c31.342,-1.665 61.035,-14.621 92.229,-16.515c16.311,-0.991 32.41,10.137 48.793,8.244c7.179,-0.83 14.043,-12.984 17.192,-18.07c2.383,-3.848 4.741,-7.712 7.099,-11.575c2.822,4.274 5.645,8.551 8.627,12.716c1.309,1.827 2.469,3.201 4.121,4.501c7.476,5.882 22.266,1.87 30.326,-0.126c46.807,-11.592 81.319,-38.7 123.408,-65.268c2.699,-1.704 10.269,-6.208 12.049,-8.847c1.524,-2.258 2.105,-5.073 2.573,-7.756c1.012,-5.802 1.731,-11.683 1.844,-17.571c0.219,-11.439 -10.948,-27.177 -14.931,-35.453c-3.323,-6.905 -7.002,-13.704 -9.383,-20.988" style="fill:#ba1f24;fill-rule:nonzero;"/></g></svg>