<?xml version="1.0" encoding="UTF-8" standalone="no"?><!DOCTYPE svg PUBLIC "-//W3C//DTD SVG 1.1//EN" "http://www.w3.org/Graphics/SVG/1.1/DTD/svg11.dtd"><svg width="100%" height="100%" viewBox="0 0 180 180" version="1.1" xmlns="http://www.w3.org/2000/svg" xmlns:xlink="http://www.w3.org/1999/xlink" xml:space="preserve" xmlns:serif="http://www.serif.com/" style="fill-rule:evenodd;clip-rule:evenodd;stroke-linejoin:round;stroke-miterlimit:2;"><g id="shined"><path d="M164.544,66.21c-0.413,-0.117 -0.861,-0.177 -1.331,-0.177c-2.971,0 -7.087,2.5 -8.338,3.861c-0.332,0.362 -1.357,1.715 -2.117,3.181c-0.259,-2.729 -1.816,-7.261 -4.894,-7.802c-0.238,-0.042 -0.482,-0.063 -0.726,-0.063c-1.833,0 -3.641,1.168 -5.226,3.379c-0.456,0.635 -0.867,1.325 -1.214,2.02c-0.016,-0.021 -0.03,-0.043 -0.046,-0.064c-0.378,-0.495 -1.249,-1.324 -2.829,-1.324c-0.387,-0.001 -0.801,0.047 -1.306,0.148c-1.095,0.221 -1.993,0.638 -2.864,1.346c-7.362,-17.671 -24.798,-30.093 -45.136,-30.093c-22.343,0 -41.185,14.992 -47.014,35.466c-0.97,-0.453 -2.231,-0.673 -3.845,-0.673c-2.297,-0 -5.275,0.464 -7.964,1.241c-1.385,0.401 -2.595,0.854 -3.596,1.346c-1.36,0.67 -2.304,1.404 -2.887,2.243c-1.586,2.286 -3.096,6.965 -3.263,7.491l-0.393,1.239l0.726,1.077c0.342,0.508 3.417,5.017 5.983,6.883c1.315,0.956 2.534,1.349 3.424,1.636c0.173,0.056 0.355,0.115 0.516,0.172l-11.216,4.497c-0.945,0.379 -1.692,0.679 -2.378,1.592c-0.016,0.022 -0.03,0.039 -0.043,0.056c-0.233,0.301 -0.719,0.927 -0.847,1.929c-0.058,0.448 -0.024,0.884 -0.007,1.051l0.214,2.094l2.084,0.295c0.059,0.009 1.449,0.205 2.728,0.31c0.168,0.013 0.347,0.02 0.547,0.02c1.634,-0 4.338,-0.473 5.128,-0.618c1.606,-0.294 3.742,-0.754 4.799,-1.273c0.322,-0.158 0.639,-0.321 0.945,-0.479c1.044,-0.537 2.031,-1.045 2.873,-1.172c0.371,-0.056 0.755,-0.083 1.175,-0.083c0.491,0 0.967,0.036 1.471,0.073c0.507,0.038 1.031,0.077 1.572,0.077c0.889,0 2.075,-0.098 3.342,-0.728c0.146,0.501 0.343,0.971 0.588,1.41c7.243,17.931 24.812,30.583 45.338,30.583c20.442,0 37.953,-12.549 45.249,-30.363c0.431,-0.028 0.849,-0.119 1.251,-0.26c-0.078,0.677 -0.047,1.365 0.153,2.04c0.41,1.383 1.445,2.434 2.913,2.958c0.508,0.182 1.065,0.274 1.656,0.274c2.613,-0 5.663,-1.851 6.902,-3.102c1.121,-1.131 2.436,-3.774 5.068,-9.168c1.866,-3.824 3.98,-8.157 5.878,-11.323c1.439,-2.402 3.439,-4.881 5.374,-7.279c0.66,-0.819 1.342,-1.664 1.996,-2.499l1.725,-0l0.35,-2.282c0.059,-0.381 0.061,-0.745 0.006,-1.087c0.082,-0.164 0.179,-0.341 0.278,-0.523c0.309,-0.564 0.66,-1.204 0.869,-1.992c0.761,-2.867 -0.635,-6.709 -3.641,-7.561" style="fill:#fff;fill-rule:nonzero;"/><path d="M76.573,129.398c-0.006,-0.002 -0.009,-0.003 -0.015,-0.005c-0.157,0.254 -0.341,0.561 -0.512,0.818c-0.302,0.42 -0.455,0.63 -0.766,1.046c0.536,0.171 0.804,0.252 1.343,0.407c-0.03,-0.52 -0.042,-0.779 -0.063,-1.298c-0.012,-0.32 0.003,-0.67 0.013,-0.968" style="fill-rule:nonzero;"/><path d="M92.953,131.129c-0.006,0.001 -0.009,0.001 -0.015,0.001c-0.053,0.294 -0.109,0.648 -0.172,0.949c-0.124,0.502 -0.189,0.753 -0.322,1.255c0.555,-0.038 0.832,-0.062 1.385,-0.116c-0.218,-0.472 -0.324,-0.709 -0.533,-1.183c-0.129,-0.293 -0.243,-0.625 -0.343,-0.906" style="fill-rule:nonzero;"/><path d="M55.023,59.111c-0.259,0.281 -0.407,0.479 -0.47,0.581c0.469,0.422 0.703,0.633 1.171,1.054c0.186,-0.206 0.279,-0.309 0.467,-0.511c0.533,-0.577 0.639,-1.144 0.285,-1.491c-0.385,-0.378 -0.92,-0.208 -1.453,0.367" style="fill-rule:nonzero;"/><path d="M59.388,55.063c0.112,0.282 0.256,0.616 0.369,0.908c0.168,0.501 0.255,0.75 0.432,1.246c0.477,-0.412 0.718,-0.614 1.206,-1.007c-0.457,-0.263 -0.688,-0.392 -1.152,-0.646c-0.286,-0.157 -0.583,-0.353 -0.84,-0.514c-0.006,0.005 -0.009,0.008 -0.015,0.013" style="fill-rule:nonzero;"/><path d="M125.183,40.411c0.008,0.009 0.016,0.018 0.024,0.027c0.003,-0.022 -0.008,-0.027 -0.024,-0.027" style="fill-rule:nonzero;"/><path d="M103.949,46.59c-0.007,-0.002 -0.01,-0.004 -0.017,-0.006c-0.177,0.246 -0.379,0.546 -0.563,0.797c-0.328,0.411 -0.49,0.617 -0.808,1.033c0.573,0.178 0.858,0.272 1.427,0.469c-0.012,-0.524 -0.021,-0.787 -0.043,-1.312c-0.013,-0.325 0,-0.679 0.004,-0.981" style="fill-rule:nonzero;"/><path d="M144.916,62.655c-0.015,0.014 0.028,0.008 -0,0" style="fill-rule:nonzero;"/><path d="M122.476,58.042c-0.448,0.444 -0.671,0.666 -1.119,1.11c0.193,0.195 0.289,0.293 0.479,0.492c0.542,0.564 1.105,0.707 1.472,0.373c0.399,-0.363 0.256,-0.911 -0.284,-1.475c-0.263,-0.275 -0.451,-0.432 -0.548,-0.5" style="fill-rule:nonzero;"/><path d="M79.417,45.211c-1.082,0.232 -1.447,1.196 -1.194,2.192c0.252,0.99 1.009,1.623 1.973,1.416c0.972,-0.209 1.38,-1.107 1.196,-2.133c-0.165,-0.925 -0.884,-1.709 -1.975,-1.475" style="fill-rule:nonzero;"/><path d="M73.752,46.827c-0.293,0.103 -0.491,0.199 -0.595,0.261c0.231,0.628 0.346,0.941 0.577,1.569c0.145,-0.014 0.305,-0.064 0.512,-0.137c0.762,-0.269 1.126,-0.738 0.949,-1.288c-0.17,-0.528 -0.711,-0.662 -1.443,-0.405" style="fill-rule:nonzero;"/><path d="M63.938,51.643c-0.306,0.197 -0.504,0.357 -0.627,0.475c0.795,1.188 1.192,1.782 1.987,2.97c0.135,-0.063 0.322,-0.188 0.502,-0.305c1.155,-0.747 1.532,-1.713 0.905,-2.806c-0.543,-0.945 -1.558,-1.116 -2.767,-0.334" style="fill-rule:nonzero;"/><path d="M84.965,44.372c-0.351,0.032 -0.574,0.078 -0.679,0.112c0.067,0.626 0.101,0.939 0.168,1.566c0.254,-0.027 0.381,-0.04 0.634,-0.063c0.722,-0.067 1.144,-0.418 1.111,-0.912c-0.037,-0.539 -0.514,-0.77 -1.234,-0.703" style="fill-rule:nonzero;"/><path d="M104.605,133.041c-0.28,-0.833 -0.419,-1.249 -0.699,-2.082c-0.877,0.294 -1.318,0.43 -2.205,0.679c0.237,0.845 0.356,1.269 0.593,2.115c-0.401,0.112 -0.602,0.166 -1.005,0.27c-0.414,-1.609 -0.828,-3.219 -1.243,-4.828c0.362,-0.093 0.542,-0.141 0.902,-0.242c0.216,0.769 0.323,1.154 0.539,1.923c0.872,-0.245 1.306,-0.378 2.167,-0.668c-0.254,-0.757 -0.381,-1.136 -0.635,-1.893c0.356,-0.119 0.533,-0.181 0.886,-0.308c0.563,1.563 1.125,3.127 1.689,4.69c-0.395,0.142 -0.592,0.211 -0.989,0.344m-5.604,1.595c-1.456,0.326 -3.002,-0.418 -3.215,-1.991c-0.204,-1.506 0.849,-2.788 2.304,-3.077c0.594,-0.119 1.046,-0.102 1.253,-0.053c-0.009,0.3 -0.015,0.45 -0.027,0.751c-0.264,-0.045 -0.621,-0.054 -1.034,0.032c-1.03,0.216 -1.674,0.962 -1.477,2.144c0.181,1.087 1.001,1.666 2.214,1.412c0.399,-0.083 0.805,-0.251 1.048,-0.414c0.13,0.264 0.196,0.396 0.328,0.659c-0.214,0.158 -0.73,0.388 -1.394,0.537m-4.288,0.6c-0.268,-0.538 -0.398,-0.809 -0.654,-1.35c-0.691,0.07 -1.037,0.1 -1.73,0.145c-0.152,0.576 -0.231,0.864 -0.394,1.439c-0.426,0.023 -0.639,0.032 -1.065,0.046c0.546,-1.67 1.034,-3.36 1.46,-5.066c0.471,-0.033 0.707,-0.053 1.177,-0.099c0.714,1.609 1.486,3.193 2.315,4.746c-0.443,0.06 -0.665,0.088 -1.109,0.139m-5.639,0.306c0.004,-0.879 0.006,-1.318 0.01,-2.197c-0.913,-0.004 -1.37,-0.017 -2.282,-0.067c-0.048,0.878 -0.072,1.316 -0.119,2.193c-0.413,-0.022 -0.619,-0.035 -1.031,-0.066c0.126,-1.657 0.251,-3.314 0.378,-4.971c0.369,0.028 0.554,0.04 0.923,0.06c-0.043,0.797 -0.065,1.197 -0.108,1.994c0.896,0.049 1.345,0.062 2.242,0.066c0.004,-0.799 0.006,-1.198 0.009,-1.997c0.371,0.002 0.555,0 0.925,-0.006c0.028,1.661 0.057,3.323 0.085,4.984c-0.413,0.007 -0.62,0.008 -1.032,0.007m-4.075,-4.329c-0.234,-0.127 -0.567,-0.251 -0.985,-0.302c-1.041,-0.126 -1.892,0.374 -2.085,1.556c-0.178,1.087 0.414,1.899 1.64,2.048c0.403,0.049 0.839,0.021 1.12,-0.055c0.038,0.291 0.057,0.437 0.097,0.729c-0.251,0.081 -0.81,0.133 -1.485,0.06c-1.482,-0.159 -2.707,-1.361 -2.403,-2.918c0.291,-1.491 1.699,-2.366 3.17,-2.173c0.598,0.079 1.018,0.239 1.197,0.352c-0.105,0.282 -0.158,0.422 -0.266,0.703m-5.417,3.34c-0.406,-0.084 -0.609,-0.128 -1.014,-0.221c0.37,-1.62 0.741,-3.24 1.111,-4.86c0.363,0.084 0.545,0.123 0.909,0.198c-0.335,1.628 -0.671,3.255 -1.006,4.883m-2.876,-0.686c-0.052,-0.599 -0.074,-0.899 -0.114,-1.497c-0.674,-0.191 -1.01,-0.292 -1.678,-0.508c-0.356,0.479 -0.536,0.716 -0.903,1.19c-0.409,-0.137 -0.614,-0.208 -1.021,-0.355c1.134,-1.347 2.217,-2.736 3.248,-4.162c0.456,0.145 0.684,0.214 1.143,0.345c0.075,1.761 0.213,3.518 0.414,5.269c-0.437,-0.108 -0.654,-0.164 -1.089,-0.282m-23.629,-7.42c0.113,-0.156 0.015,0.013 0,-0m91.623,-15.051c-1.441,0.873 -3.29,1.629 -4.961,1.629c-0.591,0 -1.148,-0.091 -1.655,-0.273c-1.469,-0.525 -2.503,-1.575 -2.914,-2.958c-0.2,-0.675 -0.231,-1.363 -0.153,-2.04c-0.487,0.171 -0.998,0.27 -1.526,0.27c-1.006,-0 -1.945,-0.351 -2.719,-1.015c-0.584,-0.502 -1.427,-1.494 -1.494,-3.076c-0.299,0.579 -0.645,1.193 -1.039,1.844c-0.781,1.29 -4.945,7.727 -10.321,7.727c-0.17,-0 -0.515,-0.021 -0.518,-0.021c-0.266,0.182 -0.49,0.491 -0.679,0.69c-0.831,0.871 -1.537,1.35 -2.532,1.999c-0.598,0.299 -1.058,0.788 -1.526,1.252c-0.556,0.551 -1.304,0.997 -1.781,1.59c0.033,-0.029 -0.774,1.099 -0.854,1.019c-0.092,0.069 -0.047,0.09 0.137,0.063c-2.823,2.043 -5.977,3.508 -9.285,4.58c-1.697,0.549 -3.084,0.523 -4.845,0.658c-1.459,-0.053 -4.321,0.506 -4.373,0.585c-0.191,0.291 -1.591,0.494 -2.316,0.555c-0.743,0.122 -1.999,-0.023 -2.338,-0.042c-1.146,-0.064 -2.913,0.081 -3.887,-0.629c0.263,0.164 -0.4,0.131 -0.577,-0.092c-0.413,-0.546 -1.141,-0.234 -1.692,-0.421c-0.658,-0.224 -1.446,-0.257 -2.135,-0.308c-0.936,-0.07 -1.841,-0.44 -2.72,-0.754c-0.728,-0.261 -2.338,-1.034 -2.454,-1.116c-0.237,-0.064 -1.106,-0.639 -1.242,-0.719c-1.317,-0.776 -2.444,-1.709 -3.69,-2.575c-0.461,-0.32 -2.666,-2.796 -3.114,-1.676c-0.185,-0.241 -0.664,-0.752 -0.674,-0.819c-1.119,-1.283 -2.424,-2.501 -3.316,-3.949c-0.368,-0.598 -0.614,-3.557 -1.602,-3.119c-0.232,0.102 -0.654,0.14 -1.042,0.179c-1.761,0.392 -3.548,0.776 -5.145,0.992c-0.274,0.037 -2.228,0.173 -2.491,0.173c-2.034,0 -3.78,-0.369 -5.19,-1.097c-1.744,-0.901 -2.923,-2.316 -3.446,-4.118c-1.267,0.63 -2.453,0.728 -3.342,0.728c-0.541,0 -1.065,-0.039 -1.572,-0.077c-0.504,-0.037 -0.98,-0.073 -1.471,-0.073c-0.42,0 -0.804,0.027 -1.175,0.083c-0.842,0.127 -1.829,0.635 -2.873,1.172c-0.306,0.158 -0.623,0.321 -0.945,0.479c-0.31,0.152 -0.714,0.299 -1.169,0.438c2.115,4.687 4.231,9.374 6.346,14.062c0.748,-0.368 1.488,-0.792 2.258,-1.11c0.768,0.034 2.243,-0.673 2.953,-0.986c0.939,-0.414 2.228,-0.903 2.983,-1.613c0.345,-0.242 0.809,-0.461 0.969,-0.56c0.399,-0.264 0.603,-0.536 1.025,-0.74c-0.151,0.529 0.638,1.558 0.625,1.528c0.237,0.555 0.129,0.915 0.58,1.407c0.686,0.747 1.128,1.676 1.791,2.447c0.77,0.896 1.519,1.7 2.514,2.315c-0.004,-0.002 -0.007,-0.005 -0.01,-0.008c0.364,0.284 0.821,0.604 1.235,0.857c0.004,-0.006 0.007,-0.013 0.01,-0.019c-0.001,0.003 -0.001,0.006 -0.004,0.01c0.08,0.085 0.095,0.046 0.044,-0.115c0.584,0.519 1.931,1.282 0.692,1.86c0.148,-0.055 -0.708,0.562 -0.792,0.618c-0.575,0.381 -1.161,1.44 -1.585,1.987c-0.72,0.926 -1.653,2.292 -1.955,3.426c0.013,-0.024 0.024,-0.049 0.037,-0.073c-0.148,0.351 -0.305,0.765 -0.628,1.152c-0.273,0.368 -0.75,0.765 -0.961,0.795c-0.148,0.565 0.008,0.779 0.638,1.169c0.993,0.614 1.986,1.228 2.979,1.842c1.107,0.685 2.214,1.37 3.321,2.054c1.089,0.674 2.159,1.799 2.22,1.775c0.577,-0.227 2.157,0.932 2.299,1.02c0.637,0.394 1.317,0.98 2.015,1.246c0.458,0.894 1.476,-1.248 1.512,-1.312c0.395,-0.194 0.704,-0.991 0.97,-1.365c1.004,-1.413 2.716,-2.135 3.237,-3.944c-0.054,0.112 0.389,-1.148 0.374,-1.137c0.116,-0.29 0.257,-0.304 0.579,-0.277c0.016,-0.037 1.556,-0.01 1.792,0.254c0.331,0.388 0.679,0.359 1.106,0.491c0.733,0.226 1.485,0.339 2.218,0.611c1.416,0.526 3.573,1.763 5.031,1.671c-0.004,-0 1.174,-0.168 1.712,-0.188c0.029,0.065 0.381,0.668 0.496,0.803c0.259,0.321 -0.003,0.654 0.029,1.002c0.072,0.77 0.361,1.322 0.228,2.13c-0.225,1.365 -0.254,3.984 -0.281,3.8c0.064,0.299 0.836,2.468 0.483,2.626c-0.07,-0.243 -0.191,-0.161 -0.298,0.327c-0.186,0.841 2.072,0.788 2.003,0.765c0.499,0.093 0.821,0.377 1.361,0.362c1,-0.028 1.952,-0.073 2.954,-0.021c1.83,0.095 3.989,0.362 5.785,0.037c-0.021,0.001 1.264,-0.184 1.885,-0.307c-0.335,-0.018 1.817,-0.188 1.826,-0.237c0.431,-0.247 0.231,-1.219 0.231,-1.839c-0,-0.403 0.359,-0.718 0.378,-1.011c0.021,0.391 0.077,-0.322 0.07,-0.408c-0.016,-0.183 -0.185,-0.61 -0.178,-0.599c-0.126,-0.302 -0.27,-0.613 -0.27,-0.925c-0,-1.916 0.363,-3.841 0.08,-5.748c-0.137,-0.926 -0.297,-1.17 0.671,-1.306c1.251,-0.175 2.426,0.038 3.706,-0.238c2.288,-0.492 4.745,-1.445 6.809,-2.557c-0.046,0.048 1.754,-1.04 1.85,-1.015c0.226,0.058 0.799,1.277 0.908,1.452c1.315,2.1 1.433,4.702 3.473,6.38c0.296,0.306 0.942,1.01 1.013,1.122c0.033,-0.076 0.053,-0.156 0.06,-0.238c0.199,0.339 0.338,0.583 0.548,0.876c-0.313,1.331 1.615,-0.067 1.803,-0.157c-0.525,0.29 0.303,-0.47 0.225,-0.42c0.374,-0.237 0.803,-0.227 1.171,-0.495c0.682,-0.495 1.282,-1.052 2,-1.505c1.829,-0.942 4.803,-3.192 4.82,-3.262c0.054,-0.214 0.928,-0.943 1.112,-1.002c0.356,-0.318 0.638,-0.759 0.484,-0.645c0.126,-0.16 1.3,-0.935 1.3,-0.935c0.855,-0.311 0.303,-0.67 0.623,-1.245c-0.091,-0.03 -0.233,0.142 -0.286,0.226c-0.114,-0.207 -0.653,-1.5 -0.672,-1.547c-0.287,-0.713 -0.897,-1.44 -1.263,-2.134c-0.597,-1.132 -1.459,-2.743 -2.648,-3.355c0.004,0.004 -0.337,-0.092 -0.472,-0.291c-0.551,-0.816 -1.284,-1.295 -0.163,-1.892c-0.263,0.166 0.128,-0.456 0.406,-0.515c0.713,-0.134 1.213,-1.255 1.479,-1.829c0.618,-0.845 1.426,-1.599 2.123,-2.38c1.072,-1.201 3.212,-3.613 3.249,-3.642c0.113,0.598 0.934,0.58 1.118,0.574c0.42,-0.003 0.548,0.392 0.881,0.556c0.754,0.372 1.544,0.562 2.299,0.987c0.995,0.626 1.684,1.328 2.955,1.077c0.538,-0.03 0.977,0.208 1.453,0.413c0.355,0.153 0.845,0.642 1.131,0.726c0.947,0.279 0.63,-0.095 1.115,-0.544c0.572,-0.482 1.207,-2.426 1.638,-3.274c0.471,-0.928 0.943,-1.857 1.415,-2.785l0.81,-1.006c0.073,-0.145 1.675,-3.886 2.059,-4.641c-1.138,0.317 -2.294,0.594 -3.459,0.821Z" style="fill-rule:nonzero;"/><path d="M54.439,58.731c0.654,-0.709 1.194,-1.084 1.709,-1.2c0.416,-0.093 0.804,0.018 1.103,0.326c0.448,0.462 0.355,1.16 0.054,1.7c0.006,0.007 0.009,0.01 0.016,0.016c0.414,-0.234 0.852,-0.168 1.29,0.067c0.57,0.306 1.092,0.609 1.307,0.669c-0.318,0.307 -0.476,0.462 -0.789,0.779c-0.167,-0.041 -0.563,-0.226 -1.121,-0.535c-0.587,-0.325 -0.945,-0.26 -1.399,0.21c-0.156,0.17 -0.234,0.255 -0.389,0.428c0.609,0.548 0.913,0.822 1.522,1.37c-0.291,0.324 -0.435,0.489 -0.72,0.822c-1.244,-1.063 -2.489,-2.126 -3.734,-3.189c0.256,-0.402 0.672,-0.944 1.151,-1.463m5.112,-4.74c1.576,0.845 3.117,1.757 4.615,2.734c-0.366,0.27 -0.548,0.408 -0.909,0.689c-0.512,-0.317 -0.771,-0.473 -1.293,-0.78c-0.592,0.474 -0.885,0.719 -1.461,1.222c0.215,0.563 0.324,0.843 0.55,1.4c-0.33,0.295 -0.493,0.445 -0.817,0.75c-0.683,-1.655 -1.301,-3.338 -1.851,-5.042c0.461,-0.398 0.695,-0.593 1.166,-0.973m3.915,-2.888c1.002,-0.652 1.812,-0.89 2.497,-0.85c0.72,0.041 1.335,0.389 1.739,1.129c0.429,0.786 0.428,1.534 0.167,2.178c-0.273,0.676 -0.927,1.33 -1.855,1.941c-0.503,0.331 -0.897,0.569 -1.204,0.741c-0.943,-1.335 -1.886,-2.672 -2.828,-4.008c0.393,-0.351 0.903,-0.754 1.484,-1.131m5.796,-3.258c0.619,-0.287 1.121,-0.374 1.472,-0.379c0.016,0.312 0.025,0.467 0.044,0.778c-0.248,0.003 -0.7,0.046 -1.226,0.29c-0.65,0.303 -0.787,0.714 -0.657,0.979c0.17,0.345 0.57,0.346 1.403,0.242c1.079,-0.134 1.705,0.083 1.983,0.744c0.313,0.744 -0.052,1.63 -1.353,2.255c-0.542,0.26 -1.159,0.411 -1.515,0.406c-0.057,-0.312 -0.084,-0.468 -0.138,-0.78c0.375,-0.003 0.904,-0.105 1.387,-0.336c0.597,-0.285 0.826,-0.684 0.659,-1.056c-0.154,-0.344 -0.517,-0.433 -1.287,-0.316c-1.013,0.153 -1.78,0.071 -2.113,-0.565c-0.381,-0.727 0.095,-1.684 1.341,-2.262m4.213,-1.665c0.786,-0.277 1.405,-0.322 1.86,-0.186c0.421,0.126 0.759,0.435 0.892,0.882c0.134,0.454 0.073,0.872 -0.157,1.221c-0.31,0.473 -0.878,0.842 -1.587,1.093c-0.188,0.066 -0.353,0.118 -0.501,0.14c0.26,0.709 0.391,1.063 0.651,1.771c-0.38,0.139 -0.569,0.211 -0.946,0.36c-0.603,-1.525 -1.206,-3.051 -1.808,-4.576c0.366,-0.208 0.879,-0.453 1.596,-0.705m5.823,-1.693c1.439,-0.312 2.968,0.45 3.206,1.986c0.231,1.485 -0.773,2.766 -2.202,3.072c-1.375,0.295 -2.775,-0.441 -3.169,-1.828c-0.441,-1.551 0.69,-2.909 2.165,-3.23m5.493,-0.79c0.886,-0.084 1.494,-0.001 1.924,0.257c0.348,0.209 0.552,0.551 0.571,0.979c0.028,0.643 -0.467,1.101 -1.009,1.3c0,0.009 0.001,0.013 0.001,0.022c0.433,0.105 0.698,0.445 0.86,0.914c0.209,0.608 0.388,1.181 0.502,1.369c-0.413,0.016 -0.619,0.027 -1.032,0.053c-0.091,-0.143 -0.254,-0.545 -0.452,-1.148c-0.209,-0.635 -0.499,-0.827 -1.1,-0.785c-0.212,0.02 -0.318,0.031 -0.53,0.054c0.088,0.815 0.131,1.222 0.219,2.037c-0.398,0.042 -0.597,0.066 -0.994,0.118c-0.214,-1.623 -0.428,-3.246 -0.642,-4.869c0.419,-0.122 1.034,-0.24 1.682,-0.301m7.636,-0.072c-0.02,0.304 -0.03,0.456 -0.05,0.76c-0.698,-0.046 -1.048,-0.062 -1.747,-0.082c-0.041,1.407 -0.081,2.814 -0.121,4.221c-0.403,-0.012 -0.605,-0.015 -1.008,-0.017c0.007,-1.408 0.013,-2.815 0.021,-4.223c-0.692,-0.003 -1.039,0.002 -1.731,0.024c-0.009,-0.305 -0.014,-0.457 -0.024,-0.762c1.562,-0.023 3.1,0.003 4.66,0.079m2.966,0.288c0.116,0.927 0.169,1.391 0.263,2.319c0.062,0.621 0.103,1.27 0.121,1.774c0.007,0.001 0.01,0.001 0.016,0.002c0.17,-0.505 0.421,-1.066 0.685,-1.66c0.396,-0.851 0.6,-1.274 1.02,-2.117c0.467,0.082 0.7,0.125 1.165,0.218c0.061,0.948 0.085,1.421 0.121,2.367c0.012,0.607 0.018,1.177 -0.017,1.722c0.006,0.001 0.01,0.002 0.017,0.004c0.218,-0.513 0.478,-1.038 0.771,-1.6c0.443,-0.821 0.67,-1.229 1.137,-2.04c0.447,0.11 0.67,0.167 1.115,0.288c-0.973,1.449 -1.897,2.93 -2.77,4.441c-0.42,-0.098 -0.631,-0.145 -1.053,-0.232c-0.033,-0.965 -0.056,-1.448 -0.115,-2.415c-0.036,-0.587 -0.052,-1.072 -0.032,-1.617c-0.007,-0.001 -0.011,-0.002 -0.018,-0.004c-0.195,0.506 -0.396,0.958 -0.667,1.489c-0.431,0.876 -0.64,1.316 -1.043,2.201c-0.432,-0.07 -0.648,-0.102 -1.081,-0.161c-0.223,-1.714 -0.5,-3.421 -0.829,-5.118c0.478,0.05 0.717,0.077 1.194,0.139m9.503,2.231c0.091,1.779 0.113,3.561 0.062,5.341c-0.411,-0.163 -0.617,-0.241 -1.032,-0.393c0.005,-0.6 0.005,-0.9 -0.004,-1.503c-0.688,-0.242 -1.034,-0.356 -1.729,-0.569c-0.356,0.483 -0.531,0.725 -0.875,1.213c-0.402,-0.118 -0.604,-0.175 -1.009,-0.283c1.012,-1.462 2.083,-2.883 3.208,-4.26c0.554,0.173 0.829,0.264 1.379,0.454m1.276,3.189c0.69,-1.709 2.761,-1.681 4.165,-0.969c0.686,0.348 1.177,0.744 1.379,0.979c-0.228,0.21 -0.341,0.316 -0.566,0.528c-0.241,-0.271 -0.569,-0.544 -1.156,-0.834c-1.189,-0.587 -2.293,-0.37 -2.757,0.694c-0.452,1.038 0.013,1.964 1.081,2.489c0.344,0.168 0.606,0.253 0.751,0.269c0.228,-0.444 0.343,-0.667 0.572,-1.112c-0.372,-0.191 -0.559,-0.284 -0.934,-0.466c0.125,-0.258 0.188,-0.387 0.313,-0.645c0.763,0.369 1.141,0.563 1.889,0.97c-0.482,0.887 -0.724,1.33 -1.207,2.217c-0.376,-0.07 -1.073,-0.257 -1.74,-0.584c-0.856,-0.419 -1.427,-0.905 -1.747,-1.531c-0.299,-0.586 -0.324,-1.306 -0.043,-2.005m6.831,0.517c0.46,0.265 0.689,0.402 1.143,0.681c0.112,1.074 0.152,1.608 0.205,2.67c0.025,0.684 -0.007,1.362 -0.094,1.961c0.006,0.004 0.009,0.006 0.014,0.01c0.317,-0.591 0.669,-1.131 1.104,-1.757c0.396,-0.571 0.595,-0.856 0.992,-1.427c0.356,0.248 0.533,0.375 0.885,0.632c-0.98,1.343 -1.959,2.686 -2.939,4.028c-0.354,-0.258 -0.532,-0.385 -0.89,-0.634c0.006,-1.064 -0.006,-1.601 -0.06,-2.68c-0.028,-0.669 -0.047,-1.395 -0.016,-2.034c-0.014,-0.005 -0.021,-0.007 -0.035,-0.012c-0.294,0.574 -0.621,1.146 -1.048,1.848c-0.37,0.609 -0.555,0.914 -0.926,1.524c-0.329,-0.201 -0.494,-0.299 -0.827,-0.491c0.831,-1.44 1.661,-2.88 2.492,-4.319m5.336,3.591c0.999,0.775 1.966,1.592 2.899,2.446c-0.202,0.221 -0.302,0.331 -0.503,0.552c-0.762,-0.697 -1.151,-1.034 -1.942,-1.681c-0.326,0.399 -0.488,0.599 -0.813,0.998c0.726,0.594 1.083,0.902 1.784,1.54c-0.198,0.219 -0.297,0.329 -0.496,0.548c-0.69,-0.627 -1.042,-0.93 -1.756,-1.515c-0.37,0.454 -0.555,0.681 -0.925,1.135c0.772,0.633 1.152,0.962 1.894,1.646l-0.504,0.55c-1.047,-0.963 -1.586,-1.418 -2.691,-2.278c1.018,-1.313 2.035,-2.628 3.053,-3.941m5.099,4.539c0.665,0.691 1.014,1.259 1.103,1.786c0.073,0.425 -0.057,0.811 -0.382,1.091c-0.487,0.42 -1.185,0.278 -1.71,-0.058c-0.007,0.006 -0.01,0.009 -0.017,0.015c0.212,0.431 0.124,0.868 -0.135,1.294c-0.336,0.554 -0.665,1.061 -0.736,1.275c-0.294,-0.344 -0.443,-0.514 -0.743,-0.848c0.05,-0.166 0.256,-0.553 0.596,-1.093c0.357,-0.568 0.312,-0.933 -0.128,-1.411c-0.16,-0.165 -0.24,-0.248 -0.402,-0.411c-0.582,0.577 -0.873,0.866 -1.454,1.443c-0.303,-0.306 -0.456,-0.457 -0.765,-0.754c1.133,-1.182 2.266,-2.363 3.399,-3.545c0.378,0.271 0.886,0.709 1.374,1.216m-93.867,12.891c-0.029,-0.03 -0.017,-0.063 0.036,-0.1c0,0 -0.006,0.003 -0.013,0.005c0.004,-0.001 0.007,-0.003 0.013,-0.005c0.596,0.161 1.107,0.544 1.723,0.543c0.375,0 0.749,0.095 1.102,0.229c0.979,0.372 1.958,0.745 2.937,1.117c1.204,0.458 4.402,1.674 4.402,1.674c0.104,0.039 -0.528,0.922 -0.605,1.036c0.256,0.052 2.025,0.55 2.532,0.813c1.737,0.905 2.681,2.848 3.09,3.926c0.156,0.414 0.342,0.988 0.476,1.656c0.026,-0.01 0.052,-0.023 0.079,-0.04c0.479,-0.304 1.267,-1.344 1.3,-1.386c2.063,-4.506 4.604,-5.48 6.41,-5.48l0.027,-0c0.521,0.003 1.629,0.169 1.685,0.159c0.179,-0.134 1.166,-2.363 1.557,-3.109c2.149,-4.098 4.874,-7.532 8.494,-10.456c1.077,-0.87 2.903,-1.917 2.569,-1.625c0.157,-0.089 1.489,-1.051 1.249,-0.813c0.133,-0.103 1.938,-0.986 1.891,-0.955c0.139,0.043 4.832,-2.373 6.536,-3.038c1.863,-0.728 3.783,-1.159 5.774,-1.148c0.484,0.003 2.185,0.172 2.387,-0.412c0.042,-0.12 1.603,-0.471 1.603,-0.471c0.473,-0.069 3.241,-0.506 4.162,-0.481c2.833,0.075 5.667,0.457 8.404,1.2c2.614,0.708 5.147,1.736 7.446,3.157c1.22,0.754 2.417,1.726 3.529,2.632c0.532,0.433 1.041,0.789 1.629,1.141c0.222,0.162 1.209,0.863 1.424,0.944c0.262,0.099 0.811,0.9 0.836,1.093c0.038,0.297 0.552,0.666 0.762,0.868c0.402,0.389 0.782,0.786 1.2,1.169c0.227,0.209 1.456,0.775 1.223,0.791c0.75,0.345 1.448,1.721 1.974,2.444c0.337,0.466 0.671,0.934 1.002,1.403c0.828,0.138 1.665,0.317 2.489,0.493c0.947,0.203 1.841,0.394 2.667,0.514c1.028,0.151 1.419,0.223 2.115,0.505c1.847,0.75 2.529,2.033 2.939,3.346c0.755,-1.051 1.538,-2.051 2.235,-2.768c1.135,-1.165 2.229,-1.785 3.657,-2.073c0.504,-0.101 0.919,-0.149 1.305,-0.149c1.58,0 2.451,0.83 2.829,1.324c0.016,0.022 0.804,-1.32 1.26,-1.955c1.347,-1.878 2.853,-3 4.4,-3.297c-0.073,-0.25 -0.007,-0.943 -0.021,-1.062c-0.02,-0.179 -0.149,-0.515 -0.191,-0.717c-0.056,-0.269 -0.793,-1.158 -0.872,-1.188c0.163,0 -0.926,-0.74 -0.943,-0.737c-0.019,-0.036 -0.797,-1.586 -0.818,-1.619c0.077,0.077 -0.818,-2.342 -0.926,-3.277c-0.03,-0.256 0.059,-0.877 -0.377,-0.832c-0.261,0.027 -0.569,0.17 -0.741,0.375c-0.07,-0.271 -2.43,0.857 -2.753,1.008c-0.752,0.352 -1.504,0.704 -2.256,1.055c-0.538,0.252 -1.076,0.56 -1.634,0.765c-0.759,0.147 -1.449,0.556 -2.24,0.526c-0.474,-0.002 -1.425,0.261 -1.192,0.885c-0.713,-0.971 -1.457,-1.92 -2.224,-2.85c-0.248,-0.301 -0.459,-0.43 -0.447,-0.832c0.012,-0.388 0.022,-0.798 -0.155,-1.156c-0.302,-0.611 -1.036,-0.795 -1.527,-1.204c-0.483,-0.404 -0.953,-0.866 -1.378,-1.331c-0.484,-0.528 -0.718,-1.183 -1.171,-1.728c-0.229,-0.276 -1.07,-0.416 -0.865,-0.776c0.423,-0.742 0.846,-1.485 1.268,-2.227c0.414,-0.727 0.828,-1.453 1.241,-2.179c0.37,-0.649 0.398,-0.594 1.008,-0.998c0.505,-0.334 0.916,-0.912 0.977,-1.524c0.02,-0.196 -0.203,-0.608 -0.131,-0.735c0.027,-0.048 0.203,-0.288 0.155,-0.323c-0.462,-0.343 -0.938,-0.698 -1.394,-1.034c-0.069,-0.051 -1.452,-1.087 -1.499,-1.139c-0.001,0.006 -0.928,-1.03 -0.99,-1.07c0.045,0.023 -0.852,-0.752 -1.418,-1.141c-0.568,-0.39 -1.178,-0.74 -1.691,-1.203c-0.527,-0.498 -0.883,-1.088 -1.506,-1.5c-0.463,-0.305 -0.709,-0.408 -1.091,-0.788c-0.494,-0.49 -0.859,-1.046 -1.543,-1.283c-0.833,-0.281 -1.128,0.107 -1.735,0.396c0.027,-0 -0.455,0.624 -0.6,0.696c-0.342,0.156 -0.372,0.42 -0.558,0.694c-0.175,0.565 -0.988,0.856 -1.365,1.28c-0.674,0.76 -0.389,1.908 -0.954,2.702c-0.565,0.793 -1.13,1.587 -1.696,2.38c-0.247,0.347 -0.851,1.195 -0.851,1.195c-1.783,-0.943 -3.538,-1.792 -5.488,-2.34c-2.27,-0.637 -4.595,-1.522 -6.984,-1.432c0,-0.822 -0.036,-1.722 0,-2.502c0.062,-0.085 0.035,-1.943 0.065,-2.689c0.025,-0.638 0.06,-1.264 0.07,-1.902c0.005,-0.271 0.037,-0.54 0.107,-0.803c0.063,-0.277 -0.096,-0.642 -0.07,-0.843c-0.345,-0.217 0.067,-0.703 -0.393,-0.703c-0.395,0 -0.868,0.072 -1.249,-0.022c-0.294,-0.201 -5.578,0.022 -6.589,0.022c-1.6,0 -3.278,0.154 -4.87,0c-0.667,-0.096 -1.283,-0.262 -1.964,-0.3c-0.272,-0.015 -0.581,-0.097 -0.772,0.165c-0.02,0.027 -0.331,2.635 -0.331,2.635c0,0.271 -0.306,2.156 -0.4,2.799c-0.142,0.895 -0.211,1.769 -0.32,2.664c-0.042,0.35 -0.192,0.645 -0.185,1.005c-0.025,0.261 0.207,0.462 0.029,0.531c0.017,0.02 -0.548,0.227 -0.446,0.24c-0.342,-0.065 -2.01,0.329 -2.323,0.365c-0.4,-0.158 -1.435,-0.084 -1.938,0.008c-1.364,0.257 -2.66,0.609 -4.041,0.78c-0.587,0.096 -1.06,0.506 -1.551,0.81c-0.431,0.267 -0.912,0.422 -1.358,0.663c-0.347,0.188 -0.395,0.445 -0.573,0.755c-0.263,-0.398 -1.174,-2.262 -1.223,-2.305c0.036,0.023 -0.679,-2.009 -1.389,-2.916c-0.502,-0.65 -1.117,-1.199 -1.642,-1.827c-0.626,-0.737 -0.643,-1.561 -1.554,-2.099c-0.614,-0.124 -1.366,0.645 -1.917,1.012c-0.671,0.447 -1.178,0.739 -1.897,0.978c0.002,0.022 -1.21,0.811 -1.772,1.36c-0.616,0.599 -1.382,1.026 -2.095,1.501c-0.976,0.65 -2.087,0.992 -3.012,1.739c-1.034,0.832 -2.104,1.669 -3.208,2.404c0.943,1.341 1.889,2.686 2.859,4.064c0.741,1.054 2.538,3.609 2.696,3.833c0.218,0.311 0.18,0.82 0.356,1.172c0.298,0.597 -0.557,0.505 -0.683,0.874c-1.274,1.278 -5.462,5.228 -6.147,6.058c-0.443,0.516 -1.773,0.986 -1.522,1.796c-1.24,-0.574 -2.61,-1.049 -3.759,-1.788c-0.697,-0.448 -3.363,-2.193 -4.035,-2.581c-0.437,-0.253 -1.606,-0.772 -2.049,-0.302c-0.165,0.176 -2.569,5.634 -3.008,6.238c-0.497,0.685 -1.019,1.227 -1.389,2.01c-0.597,1.267 -0.885,2.586 -1.677,3.755c-0.247,0.365 -0.44,0.706 -0.577,1.13c-0.113,0.348 -0.348,0.813 -0.395,1.153c-0.093,0.676 0.526,0.695 0.976,0.91" style="fill-rule:nonzero;"/><path d="M165.586,73.08c0.111,-0.42 0.134,-0.866 0.101,-1.299c-0.035,-0.444 -0.139,-0.889 -0.304,-1.303c-1.088,-2.722 -3.788,-1.619 -5.786,-0.612c-1.817,0.916 -2.822,1.812 -3.923,3.52c-0.617,0.958 -0.705,1.263 -1.081,2.289c-0.085,0.234 0.006,0.707 -0.243,0.707l-0.161,-0l-0,0.291l0.484,3.501l-0.258,-0c-0.427,-0 -0.657,-0.547 -0.973,-0.835c-0.613,-0.56 -1.222,-1.124 -1.812,-1.708c-0.406,-0.402 -1.118,-1.149 -1.322,-1.734c-0.33,-0.951 -0.107,-1.58 -0.228,-2.567c-0.153,-1.253 -0.445,-2.395 -1.001,-3.532c-0.742,-1.517 -2.001,-2.626 -3.503,-1.244c-2.398,2.205 -4.891,6.874 -2.776,10.069c0.403,0.61 0.846,1.201 1.36,1.722c0.899,0.911 2.307,1.414 2.853,2.572c0.174,0.371 0.151,0.807 0.18,1.216c0.124,1.751 0.248,4.698 -0.037,6.449c-0.158,0.969 -1.702,4.073 -1.943,4.554c-0.807,1.607 -1.745,3.379 -2.786,4.874c-2.037,2.925 -2.268,2.749 -3.992,5.857c-0.829,1.496 -1.339,3.492 0.553,4.352c0.231,0.105 0.498,0.13 0.752,0.117c5.498,-0.285 7.352,-6.325 9.377,-10.401c2.93,-5.898 5.695,-11.789 9.772,-16.994c1.32,-1.686 2.668,-3.35 4.009,-5.02c0.007,-0.008 0.607,-0.956 0.99,-0.956l0.486,-0c0.017,-0.096 0.037,-0.202 -0,-0.292c-0.1,-0.241 -0.251,-0.194 -0.168,-0.437c0.372,-1.086 1.085,-2.047 1.38,-3.156" style="fill:#ba1f24;fill-rule:nonzero;"/><path d="M29.339,79.585l-0.001,0c-1.259,0.428 -2.985,0.98 -3.84,2.091c-0.468,0.608 -0.791,1.319 -1.123,2.012c-0.348,0.728 -0.645,1.48 -0.934,2.233c-0.333,0.868 -0.631,1.748 -0.929,2.629c0.594,0.839 1.188,1.679 1.82,2.489c0.551,0.706 1.113,1.406 1.728,2.058c0.559,0.591 1.144,1.163 1.786,1.662c0.408,0.317 0.879,0.55 1.347,0.771c0.394,0.188 0.819,0.304 1.231,0.452c1.486,0.536 4.829,2.545 2.514,4.308c-0.452,0.344 -0.951,0.636 -1.478,0.847l-11.471,4.6c-0.398,0.159 -0.952,0.318 -1.229,0.711c-0.153,0.218 -0.27,0.462 -0.372,0.708c-0.055,0.135 0,0.438 0,0.438c0.857,0.099 1.714,0.197 2.571,0.292c1.652,0.181 3.532,-0.293 5.143,-0.595c1.214,-0.227 2.471,-0.451 3.632,-0.886c0.885,-0.331 1.734,-0.918 2.558,-1.257c0.758,-0.313 1.559,-0.509 2.339,-0.763c0.594,-0.193 1.417,-0.128 2.033,-0.104c2.034,0.079 4.003,0.483 5.672,-0.934l-0,-0c2.827,-2.408 3.322,-7.611 1.151,-10.63c-0.939,-1.306 -2.726,-2.007 -3.064,-3.666c-0.134,-0.658 0.8,-1.879 1.078,-2.346c0.598,-1.009 1.29,-2.008 1.25,-3.239c-0.033,-1.038 -0.259,-1.982 -0.697,-2.924c-0.523,-1.123 -0.711,-1.238 -1.598,-1.973c-0.535,-0.442 -1.677,-0.436 -2.323,-0.456c-2.189,-0.069 -4.393,0.303 -6.516,0.814c-0.768,0.185 -1.529,0.405 -2.278,0.658Z" style="fill:#ba1f24;fill-rule:nonzero;"/><path d="M132.315,89.216c-1.196,0.313 -1.93,-0.612 -1.649,-1.75c0.272,-1.102 1.179,-3.684 1.577,-4.667c0.201,-0.499 0.434,-0.987 0.691,-1.46c0.053,-0.099 0.362,-0.535 0.589,-0.489c0.778,0.158 1.205,1.744 1.368,2.29c0.709,2.376 0.144,5.365 -2.576,6.076m-6.257,1.167c-0.427,0.862 -0.873,1.717 -1.368,2.542c-0.188,0.313 -0.739,1.147 -1.206,1.426c-0.898,0.535 -1.024,-0.812 -0.821,-1.342c1.239,-3.224 2.195,-5.42 3.697,-8.363c0.188,-0.369 0.393,-0.732 0.626,-1.075c0.335,-0.492 0.684,-0.758 1.012,-0.189c0.041,0.07 0.243,-0.08 0.243,0c-0.005,1.623 0.032,2.023 -0.602,3.593c-0.469,1.161 -1.024,2.287 -1.581,3.408m12.853,3.886c-0.268,-1.304 -1.841,-2.455 -1.455,-3.886c0.517,-1.916 2.608,-3.144 2.91,-5.104c0.162,-1.055 -1.021,-2.202 -1.435,-3.043c-0.599,-1.216 -0.695,-1.695 -0.695,-3.107c-0.001,-2.021 0.443,-4.023 0.496,-6.044c0.008,-0.31 -0.026,-0.661 -0.216,-0.906c-0.518,-0.669 -2.162,-0.022 -2.615,0.241c-1.931,1.122 -3.316,3.62 -4.487,5.406c-0.633,0.964 -1.236,1.948 -1.84,2.931c-0.46,-1.853 -0.921,-3.708 -1.454,-5.542c-0.12,-0.411 -0.238,-0.844 -0.5,-1.182c-0.616,-0.793 -1.544,-0.829 -2.437,-1.012c-1.265,-0.259 -2.534,-0.506 -3.803,-0.749c-1.703,-0.327 -4.279,-1.07 -5.865,0.094c-0.741,0.543 -0.973,1.266 -1.097,2.149c-0.065,0.465 -0.079,0.945 -0.01,1.41c0.39,2.628 4.008,2.776 5.466,4.54c1.288,1.559 0.704,2.913 -0.221,4.399c-0.227,0.365 -0.735,0.961 -0.748,1.435c-0.013,0.447 0.663,3.827 0.003,4.593c-0.617,0.716 -1.319,-0.649 -1.432,-1.027c-0.861,-2.896 -0.404,-2.975 -1.239,-5.899c-0.183,-0.643 -1.096,-1.803 -1.964,-1.499c-0.519,0.182 -0.623,0.485 -0.991,0.978l-4.52,6.053l-5.222,-18.335c-0.759,0.069 -1.518,0.138 -2.273,0.236c-1.014,0.131 -2.595,0.371 -3.581,0.753c-1.413,0.547 -2.276,3.016 -1.973,4.405c0.111,0.507 0.306,0.995 0.508,1.473l4.749,11.23c0.856,2.026 1.179,4.482 0.838,6.672c-0.229,1.475 -1.243,4.404 -1.59,5.815c-0.432,1.763 -0.262,3.268 1.569,3.969c0.44,0.168 1.144,0.044 1.543,-0.008l11.342,-1.479c0.248,-0.032 0.499,-0.106 0.746,-0.069c0.24,0.037 0.464,0.156 0.669,0.285c1.394,0.879 0.039,2.442 -0.214,3.499c-0.082,0.344 -0.087,0.712 -0.024,1.06c0.394,2.2 2.9,2.09 4.408,1.185c3.105,-1.863 5.443,-4.826 6.936,-8.101c0.327,-0.717 0.589,-1.466 0.805,-2.224c0.349,-1.22 -0.051,-1.328 0.607,-2.48c0.554,-0.97 1.713,-2.067 2.525,-2.781c0.573,-0.503 1.173,-0.975 1.773,-1.447c0.434,1.258 0.87,2.521 1.158,3.82c0.101,0.455 0.104,0.945 -0,1.4c-0.146,0.63 -0.47,1.204 -0.736,1.793c-0.662,1.467 -1.128,1.907 -1.359,3.48c-0.129,0.878 0.685,1.652 1.525,1.685c0.729,0.029 1.525,-0.563 2.013,-1.001c1.526,-1.37 1.968,-3.15 2.517,-5.121c0.32,-1.148 0.531,-2.324 0.783,-3.489c0.103,-0.475 0.207,-0.965 0.107,-1.454" style="fill:#ba1f24;fill-rule:nonzero;"/><path d="M83.119,83.297c-0.606,0.18 -0.948,0.076 -1.438,-0.352c-0.768,-0.671 -1.461,-1.398 -1.634,-2.444c-0.117,-0.708 -0.017,-1.514 0.179,-2.177c0.06,-0.205 0.228,-0.366 0.378,-0.52c0.335,-0.346 1.416,-1.147 1.761,-1.301c2.094,-0.936 4.379,-0.018 5.048,2.175c0.193,0.632 0.185,1.255 -0.076,1.864c-0.671,1.565 -2.772,2.329 -4.218,2.755m3.169,12.191c-0.366,0.41 -0.893,0.714 -1.38,0.955c-1.087,0.541 -2.106,1.015 -3.19,0.149c-0.144,-0.116 -0.275,-0.25 -0.389,-0.395c-0.117,-0.148 -0.232,-0.304 -0.299,-0.48c-0.146,-0.384 -0.284,-0.778 -0.333,-1.185c-0.058,-0.473 -0.036,-0.956 0.014,-1.43c0.047,-0.441 0.327,-0.969 0.592,-1.31c0.266,-0.342 0.572,-0.65 0.863,-0.971c0.6,-0.663 1.631,-1.976 2.646,-1.937c0.706,0.028 1.243,0.68 1.616,1.198c1.151,1.599 1.211,3.901 -0.14,5.406m9.094,-10.355c-0.611,-1.87 -0.68,-3.48 -0.869,-5.415c-0.083,-0.849 -0.161,-3.126 -0.668,-4.039c-0.409,-0.737 -2.907,-2.442 -3.213,-2.644c-2.253,-1.492 -2.454,-1.525 -4.824,-2.488c-0.958,-0.389 -2.289,-0.259 -3.304,-0.2c-2.973,0.173 -6.31,0.935 -8.609,2.932c-1.655,1.438 -2.23,3.556 -1.012,5.567c0.541,0.893 1.418,1.603 1.765,2.588c0.343,0.971 0.194,2.052 0.237,3.081c0.085,2.083 0.119,4.169 0.147,6.253c0.034,2.649 0.113,6.463 -0.141,9.341c-0.085,0.962 -1.623,2.401 -1.623,2.401c-0.083,-1.549 -0.165,-3.098 -0.278,-4.645c-0.107,-1.472 -0.225,-2.943 -0.381,-4.411c-0.413,-3.886 -0.902,-7.888 -2.383,-11.547l-0.019,-0.048c-0.742,-1.82 -2.195,-4.795 -4.62,-4.667c-0.612,0.032 -1.19,0.25 -1.75,0.501c-0.488,0.218 -0.963,0.47 -1.412,0.759c-1.32,0.85 -2.185,1.787 -2.547,3.34c-0.666,2.852 1.432,5.449 2.282,8.008c0.489,1.473 0.061,3.374 -0.42,4.733c-0.729,2.058 -1.96,5.247 -4.522,5.228l-0.022,-0c-0.221,-0.002 -0.441,-0.011 -0.661,-0.023c-0.105,-0.005 -0.317,-0.02 -0.317,-0.02c0.347,-1.92 0.693,-3.841 0.998,-5.768c0.251,-1.593 0.496,-3.188 0.67,-4.791c0.141,-1.298 0.29,-2.603 0.273,-3.91c-0.013,-0.913 -0.133,-1.831 -0.361,-2.715c-0.575,-2.239 -2.967,-6.176 -5.826,-4.722c-1.853,0.942 -2.808,3.296 -3.462,5.06c-0.317,0.853 -0.572,1.728 -0.795,2.61c-0.941,3.731 -0.693,6.306 -0.68,10.394c0.003,0.872 0.052,1.746 -0.003,2.617c-0.037,0.577 -0.066,1.174 -0.271,1.715c-0.273,0.721 -1.386,2.12 -1.668,3.103c-0.422,1.465 0.142,3.164 1.249,4.172c1.413,1.287 3.653,1.511 5.475,1.414c4.215,-0.224 8.208,-1.966 12.403,-2.221c2.194,-0.133 4.359,1.363 6.562,1.108c0.965,-0.111 1.888,-1.746 2.312,-2.43c0.32,-0.517 0.638,-1.037 0.955,-1.556c0.379,0.575 0.759,1.15 1.16,1.71c0.176,0.246 0.332,0.43 0.554,0.605c1.006,0.791 2.994,0.252 4.078,-0.017c6.295,-1.559 10.936,-5.204 16.597,-8.777c0.363,-0.229 1.381,-0.835 1.62,-1.19c0.205,-0.304 0.283,-0.682 0.346,-1.043c0.136,-0.78 0.233,-1.571 0.248,-2.363c0.03,-1.538 -1.472,-3.655 -2.008,-4.768c-0.447,-0.928 -0.942,-1.843 -1.262,-2.822" style="fill:#ba1f24;fill-rule:nonzero;"/></g></svg>